<?xml version="1.0" standalone="no"?>
<!DOCTYPE svg PUBLIC "-//W3C//DTD SVG 1.1//EN" "http://www.w3.org/Graphics/SVG/1.1/DTD/svg11.dtd" >
<svg xmlns="http://www.w3.org/2000/svg" xmlns:xlink="http://www.w3.org/1999/xlink" version="1.1">
<metadata>
Created by FontForge 20170731 at Mon Jul 23 19:35:35 2018
 By Aleksey,,,
Font Awesome
</metadata>
<defs>
<font id="FontAwesome5FreeRegular" horiz-adv-x="512" >
  <font-face 
    font-family="Font Awesome 5 Free"
    font-weight="400"
    font-stretch="normal"
    units-per-em="512"
    panose-1="2 0 5 3 0 0 0 0 0 0"
    ascent="448"
    descent="-64"
    bbox="-0.422535 -64.25 640.167 448.25"
    underline-thickness="0"
    underline-position="5"
    unicode-range="U+F004-F5C8"
  />
<missing-glyph horiz-adv-x="0" 
 />
    <glyph glyph-name=".notdef" horiz-adv-x="0" 
 />
    <glyph glyph-name=".null" horiz-adv-x="0" 
 />
    <glyph glyph-name="nonmarkingreturn" horiz-adv-x="170" 
 />
    <glyph glyph-name="heart" unicode="&#xf004;" 
d="M458 384q-28 24 -65 30t-73.5 -6t-63.5 -39q-27 27 -63.5 39t-73.5 6t-65 -30q-36 -31 -48 -74q-12 -39 -1 -79.5t38 -68.5l175 -178q16 -16 38 -16t38 16l175 178q27 28 38 68.5t0 79.5q-13 43 -49 74zM435 196l-176 -178q-3 -4 -6 0l-176 178q-18 19 -25.5 46.5
t0.5 54.5q8 29 33 50q29 24 68.5 21t67.5 -32l35 -35l35 35q28 29 67.5 32t68.5 -21q25 -21 33 -50q8 -27 0.5 -54.5t-25.5 -46.5z" />
    <glyph glyph-name="star" unicode="&#xf005;" horiz-adv-x="576" 
d="M528 277l-146 21l-65 132q-6 12 -17.5 16t-23 0t-17.5 -16l-65 -132l-146 -21q-13 -2 -20.5 -12t-7 -22t9.5 -21l106 -103l-25 -146q-2 -12 4.5 -22.5t18.5 -13.5t23 3l131 68l131 -68q11 -6 23 -3t18.5 13.5t4.5 22.5l-25 146l106 103q9 9 9.5 21t-7 22t-20.5 12z
M389 136l23 -139l-124 66l-124 -66l23 139l-100 98l139 20l62 126l62 -126l139 -20z" />
    <glyph glyph-name="user" unicode="&#xf007;" horiz-adv-x="448" 
d="M314 144q-13 0 -34 -7q-14 -4 -23 -6q-15 -3 -33 -3t-33 3q-9 2 -23 6q-21 7 -34 7q-36 0 -67 -18t-49 -49t-18 -67v-26q0 -20 14 -34t34 -14h352q20 0 34 14t14 34v26q0 36 -18 67t-49 49t-67 18zM400 -16h-352v26q0 35 25.5 60.5t60.5 25.5q5 0 20 -4q37 -12 70.5 -12
t69.5 12q14 4 20 4q35 0 60.5 -25.5t25.5 -60.5v-26zM224 160q39 0 72 19.5t52.5 52.5t19.5 72t-19.5 72t-52.5 52.5t-72 19.5t-72 -19.5t-52.5 -52.5t-19.5 -72t19.5 -72t52.5 -52.5t72 -19.5zM224 400q40 0 68 -28t28 -68t-28 -68t-68 -28t-68 28t-28 68t28 68t68 28z" />
    <glyph glyph-name="clock" unicode="&#xf017;" 
d="M256 440q-67 0 -124 -33.5t-90.5 -90.5t-33.5 -124t33.5 -124t90.5 -90.5t124 -33.5t124 33.5t90.5 90.5t33.5 124t-33.5 124t-90.5 90.5t-124 33.5zM256 -8q-54 0 -100 27t-73 73t-27 100t27 100t73 73t100 27t100 -27t73 -73t27 -100t-27 -100t-73 -73t-100 -27z
M318 96l-85 62q-5 4 -5 10v164q0 5 3.5 8.5t8.5 3.5h32q5 0 8.5 -3.5t3.5 -8.5v-142l67 -48q4 -3 4.5 -8t-2.5 -9l-18 -26q-3 -4 -8 -5t-9 2z" />
    <glyph glyph-name="list-alt" unicode="&#xf022;" 
d="M464 416h-416q-20 0 -34 -14t-14 -34v-352q0 -20 14 -34t34 -14h416q20 0 34 14t14 34v352q0 20 -14 34t-34 14zM458 16h-404q-2 0 -4 2t-2 4v340q0 2 2 4t4 2h404q2 0 4 -2t2 -4v-340q0 -2 -2 -4t-4 -2zM416 108v-24q0 -5 -3.5 -8.5t-8.5 -3.5h-200q-5 0 -8.5 3.5
t-3.5 8.5v24q0 5 3.5 8.5t8.5 3.5h200q5 0 8.5 -3.5t3.5 -8.5zM416 204v-24q0 -5 -3.5 -8.5t-8.5 -3.5h-200q-5 0 -8.5 3.5t-3.5 8.5v24q0 5 3.5 8.5t8.5 3.5h200q5 0 8.5 -3.5t3.5 -8.5zM416 300v-24q0 -5 -3.5 -8.5t-8.5 -3.5h-200q-5 0 -8.5 3.5t-3.5 8.5v24q0 5 3.5 8.5
t8.5 3.5h200q5 0 8.5 -3.5t3.5 -8.5zM164 288q0 -15 -10.5 -25.5t-25.5 -10.5t-25.5 10.5t-10.5 25.5t10.5 25.5t25.5 10.5t25.5 -10.5t10.5 -25.5zM164 192q0 -15 -10.5 -25.5t-25.5 -10.5t-25.5 10.5t-10.5 25.5t10.5 25.5t25.5 10.5t25.5 -10.5t10.5 -25.5zM164 96
q0 -15 -10.5 -25.5t-25.5 -10.5t-25.5 10.5t-10.5 25.5t10.5 25.5t25.5 10.5t25.5 -10.5t10.5 -25.5z" />
    <glyph glyph-name="flag" unicode="&#xf024;" 
d="M336 368q-15 0 -33 4q-11 3 -34 10q-28 9 -44 12q-26 6 -51 6q-41 0 -80 -15q3 10 2 21q-2 17 -15 29t-30 13q-21 1 -36 -13t-15 -35q0 -13 6.5 -24t17.5 -18v-406q0 -7 4.5 -11.5t11.5 -4.5h16q7 0 11.5 4.5t4.5 11.5v83q32 15 57 21q31 8 71 8q15 0 33 -4q11 -3 34 -10
q28 -9 44 -12q26 -6 51 -6q67 0 128 40q10 7 16 17.5t6 22.5v240q0 17 -10 29.5t-25.5 17t-31.5 -2.5q-65 -28 -109 -28zM464 112q-19 -13 -44 -22q-29 -10 -58 -10q-20 0 -42 5q-14 3 -39.5 11t-38.5 11q-22 5 -42 5q-33 0 -69 -6.5t-59 -17.5v232q19 13 44 22q29 10 58 10
q20 0 42 -5q14 -3 39.5 -11t38.5 -11q22 -5 42 -5q30 0 68 11q33 8 60 21v-240z" />
    <glyph glyph-name="bookmark" unicode="&#xf02e;" horiz-adv-x="384" 
d="M336 448h-288q-20 0 -34 -14t-14 -34v-464l192 112l192 -112v464q0 20 -14 34t-34 14zM336 20l-144 84l-144 -84v374q0 2 2 4t4 2h276q2 0 4 -2t2 -4v-374z" />
    <glyph glyph-name="image" unicode="&#xf03e;" 
d="M464 384h-416q-20 0 -34 -14t-14 -34v-288q0 -20 14 -34t34 -14h416q20 0 34 14t14 34v288q0 20 -14 34t-34 14zM458 48h-404q-2 0 -4 2t-2 4v276q0 2 2 4t4 2h404q2 0 4 -2t2 -4v-276q0 -2 -2 -4t-4 -2zM128 296q-17 0 -28.5 -11.5t-11.5 -28.5t11.5 -28.5t28.5 -11.5
t28.5 11.5t11.5 28.5t-11.5 28.5t-28.5 11.5zM96 96h320v80l-88 88q-3 3 -8 3t-8 -3l-120 -120l-40 40q-3 3 -8 3t-8 -3l-40 -40v-48z" />
    <glyph glyph-name="edit" unicode="&#xf044;" horiz-adv-x="576" 
d="M402 103l32 32q4 4 9 2t5 -8v-145q0 -20 -14 -34t-34 -14h-352q-20 0 -34 14t-14 34v352q0 20 14 34t34 14h274q5 0 7 -5t-2 -9l-32 -32q-2 -2 -5 -2h-242v-352h352v114q0 3 2 5zM559 305l-263 -263l-90 -10q-20 -2 -34 12t-12 34l10 90l263 263q17 17 41.5 17t41.5 -17
l43 -43q17 -17 17 -41.5t-17 -41.5zM460 274l-58 58l-186 -186l-7 -65l65 7zM525 354l-43 43q-3 3 -7.5 3t-7.5 -3l-31 -31l58 -58l31 31q3 3 3 7.5t-3 7.5z" />
    <glyph glyph-name="times-circle" unicode="&#xf057;" 
d="M256 440q-67 0 -124 -33.5t-90.5 -90.5t-33.5 -124t33.5 -124t90.5 -90.5t124 -33.5t124 33.5t90.5 90.5t33.5 124t-33.5 124t-90.5 90.5t-124 33.5zM256 -8q-54 0 -100 27t-73 73t-27 100t27 100t73 73t100 27t100 -27t73 -73t27 -100t-27 -100t-73 -73t-100 -27z
M358 254l-62 -62l62 -62q3 -4 3 -9t-3 -8l-23 -23q-3 -3 -8 -3t-9 3l-62 62l-62 -62q-4 -3 -9 -3t-8 3l-23 23q-3 3 -3 8t3 9l62 62l-62 62q-3 4 -3 9t3 8l23 23q3 3 8 3t9 -3l62 -62l62 62q4 3 9 3t8 -3l23 -23q3 -3 3 -8t-3 -9z" />
    <glyph glyph-name="check-circle" unicode="&#xf058;" 
d="M256 440q-67 0 -124 -33.5t-90.5 -90.5t-33.5 -124t33.5 -124t90.5 -90.5t124 -33.5t124 33.5t90.5 90.5t33.5 124t-33.5 124t-90.5 90.5t-124 33.5zM256 392q54 0 100 -27t73 -73t27 -100t-27 -100t-73 -73t-100 -27t-100 27t-73 73t-27 100t27 100t73 73t100 27z
M396 262l-22 22q-4 4 -9 4t-8 -3l-142 -141l-59 61q-4 3 -9 3t-8 -3l-23 -23q-4 -3 -4 -8t4 -9l91 -91q3 -4 8 -4t9 4l172 171q4 3 4 8t-4 9z" />
    <glyph glyph-name="question-circle" unicode="&#xf059;" 
d="M256 440q-67 0 -124 -33.5t-90.5 -90.5t-33.5 -124t33.5 -124t90.5 -90.5t124 -33.5t124 33.5t90.5 90.5t33.5 124t-33.5 124t-90.5 90.5t-124 33.5zM256 -8q-54 0 -100 27t-73 73t-27 100t27 100t73 73t100 27t100 -27t73 -73t27 -100t-27 -100t-73 -73t-100 -27z
M363 247q0 -27 -16 -46q-10 -11 -33 -24q-12 -7 -16 -11q-7 -5 -7 -12v-6q0 -5 -3.5 -8.5t-8.5 -3.5h-46q-5 0 -8.5 3.5t-3.5 8.5v9q0 23 16 39q9 9 30 21l2 1q15 9 21 14q7 7 7 16q0 12 -12.5 20t-28 8t-26.5 -7q-9 -6 -22 -23q-3 -3 -7.5 -4t-8.5 2l-28 21q-4 3 -4.5 8
t1.5 9q19 27 43 40.5t58 13.5q24 0 48 -12t38.5 -32t14.5 -45zM298 80q0 -17 -12.5 -29.5t-29.5 -12.5t-29.5 12.5t-12.5 29.5t12.5 29.5t29.5 12.5t29.5 -12.5t12.5 -29.5z" />
    <glyph glyph-name="eye" unicode="&#xf06e;" horiz-adv-x="576" 
d="M569 216q-43 73 -117 116q-75 44 -164 44t-164 -44q-74 -43 -117 -116q-7 -11 -7 -24t7 -24q43 -73 117 -116q75 -44 164 -44t164 44q74 43 117 116q7 11 7 24t-7 24zM288 56q-76 0 -139.5 37t-100.5 99q34 57 91 93t125 42q16 -16 16 -39t-16.5 -39.5t-39.5 -16.5
t-39.5 16.5t-16.5 39.5v0q-16 -30 -16 -64q0 -37 18.5 -68t49.5 -49.5t68 -18.5t68 18.5t49.5 49.5t18.5 68q0 46 -28 83q42 -18 75.5 -47.5t56.5 -67.5q-37 -62 -100.5 -99t-139.5 -37z" />
    <glyph glyph-name="eye-slash" unicode="&#xf070;" horiz-adv-x="576" 
d="M273 89q-40 4 -70.5 29t-43.5 62t-3 76zM288 56q-76 0 -139.5 37t-100.5 99q33 56 88 92l-27 39q-64 -42 -102 -107q-7 -11 -7 -24t7 -24q43 -73 117 -116q75 -44 164 -44q20 0 40 2l-32 46h-8zM569 168q-25 -43 -61.5 -76t-81.5 -54l48 -69q3 -4 2 -8.5t-5 -7.5l-21 -15
q-4 -3 -9 -2t-7 5l-332 474q-3 4 -2 8.5t5 7.5l21 15q4 3 9 2t7 -5l56 -79q44 12 90 12q89 0 164 -44q74 -43 117 -116q7 -11 7 -24t-7 -24zM528 192q-34 57 -91 93t-125 42q-16 -16 -16 -39t16.5 -39.5t39.5 -16.5t39.5 16.5t16.5 39.5v0q23 -43 13 -92t-50 -80l27 -38
q41 18 74.5 47t55.5 67z" />
    <glyph glyph-name="calendar-alt" unicode="&#xf073;" horiz-adv-x="448" 
d="M148 160h-40q-5 0 -8.5 3.5t-3.5 8.5v40q0 5 3.5 8.5t8.5 3.5h40q5 0 8.5 -3.5t3.5 -8.5v-40q0 -5 -3.5 -8.5t-8.5 -3.5zM256 172v40q0 5 -3.5 8.5t-8.5 3.5h-40q-5 0 -8.5 -3.5t-3.5 -8.5v-40q0 -5 3.5 -8.5t8.5 -3.5h40q5 0 8.5 3.5t3.5 8.5zM352 172v40q0 5 -3.5 8.5
t-8.5 3.5h-40q-5 0 -8.5 -3.5t-3.5 -8.5v-40q0 -5 3.5 -8.5t8.5 -3.5h40q5 0 8.5 3.5t3.5 8.5zM256 76v40q0 5 -3.5 8.5t-8.5 3.5h-40q-5 0 -8.5 -3.5t-3.5 -8.5v-40q0 -5 3.5 -8.5t8.5 -3.5h40q5 0 8.5 3.5t3.5 8.5zM160 76v40q0 5 -3.5 8.5t-8.5 3.5h-40q-5 0 -8.5 -3.5
t-3.5 -8.5v-40q0 -5 3.5 -8.5t8.5 -3.5h40q5 0 8.5 3.5t3.5 8.5zM352 76v40q0 5 -3.5 8.5t-8.5 3.5h-40q-5 0 -8.5 -3.5t-3.5 -8.5v-40q0 -5 3.5 -8.5t8.5 -3.5h40q5 0 8.5 3.5t3.5 8.5zM448 336v-352q0 -20 -14 -34t-34 -14h-352q-20 0 -34 14t-14 34v352q0 20 14 34t34 14
h48v52q0 5 3.5 8.5t8.5 3.5h40q5 0 8.5 -3.5t3.5 -8.5v-52h128v52q0 5 3.5 8.5t8.5 3.5h40q5 0 8.5 -3.5t3.5 -8.5v-52h48q20 0 34 -14t14 -34zM400 -10v298h-352v-298q0 -2 2 -4t4 -2h340q2 0 4 2t2 4z" />
    <glyph glyph-name="comment" unicode="&#xf075;" 
d="M256 416q-70 0 -128.5 -28t-93 -75.5t-34.5 -104.5q0 -70 53 -126q-9 -25 -29 -52q-13 -18 -17.5 -22.5t-6 -11.5t1.5 -13.5t9 -10.5t13 -4q74 0 139 46q46 -14 93 -14q70 0 128.5 28t93 75.5t34.5 104.5t-34.5 104.5t-93 75.5t-128.5 28zM256 48q-40 0 -78 12l-23 7
l-20 -13q-27 -20 -57 -30q12 21 20 41l10 28l-20 22q-40 42 -40 93q0 43 28 80t76 58.5t104 21.5t104 -21.5t76 -58.5t28 -80t-28 -80t-76 -58.5t-104 -21.5z" />
    <glyph glyph-name="folder" unicode="&#xf07b;" 
d="M464 320h-192l-64 64h-160q-20 0 -34 -14t-14 -34v-288q0 -20 14 -34t34 -14h416q20 0 34 14t14 34v224q0 20 -14 34t-34 14zM458 48h-404q-2 0 -4 2t-2 4v276q0 2 2 4t4 2h134l64 -64h206q2 0 4 -2t2 -4v-212q0 -2 -2 -4t-4 -2z" />
    <glyph glyph-name="folder-open" unicode="&#xf07c;" horiz-adv-x="576" 
d="M528 224h-48v48q0 20 -14 34t-34 14h-160l-64 64h-160q-20 0 -34 -14t-14 -34v-288q0 -20 14 -34t34 -14h400q12 0 23 6t18 17l80 128q9 15 6 32.5t-16 29t-31 11.5zM54 336h134l64 -64h174q2 0 4 -2t2 -4v-42h-280q-13 0 -24 -6t-17 -17l-63 -104v233q0 2 2 4t4 2z
M448 48h-376l77 128h379z" />
    <glyph glyph-name="chart-bar" unicode="&#xf080;" 
d="M500 48q5 0 8.5 -3.5t3.5 -8.5v-24q0 -5 -3.5 -8.5t-8.5 -3.5h-488q-5 0 -8.5 3.5t-3.5 8.5v360q0 5 3.5 8.5t8.5 3.5h24q5 0 8.5 -3.5t3.5 -8.5v-324h452zM144 108v72q0 5 -3.5 8.5t-8.5 3.5h-24q-5 0 -8.5 -3.5t-3.5 -8.5v-72q0 -5 3.5 -8.5t8.5 -3.5h24q5 0 8.5 3.5
t3.5 8.5zM240 108v200q0 5 -3.5 8.5t-8.5 3.5h-24q-5 0 -8.5 -3.5t-3.5 -8.5v-200q0 -5 3.5 -8.5t8.5 -3.5h24q5 0 8.5 3.5t3.5 8.5zM336 108v136q0 5 -3.5 8.5t-8.5 3.5h-24q-5 0 -8.5 -3.5t-3.5 -8.5v-136q0 -5 3.5 -8.5t8.5 -3.5h24q5 0 8.5 3.5t3.5 8.5zM432 108v232
q0 5 -3.5 8.5t-8.5 3.5h-24q-5 0 -8.5 -3.5t-3.5 -8.5v-232q0 -5 3.5 -8.5t8.5 -3.5h24q5 0 8.5 3.5t3.5 8.5z" />
    <glyph glyph-name="comments" unicode="&#xf086;" horiz-adv-x="576" 
d="M532 62q44 43 44 98q0 39 -23 73t-63.5 56.5t-89.5 28.5q-24 44 -76 71t-116 27q-57 0 -104.5 -21.5t-75.5 -58.5t-28 -80q0 -55 44 -98q-10 -19 -24 -39q-9 -12 -13.5 -16.5t-6 -11.5t1.5 -13t8.5 -10t12.5 -4q66 0 125 39q14 -3 29 -5q24 -44 75.5 -71t115.5 -27
q30 0 60 7q60 -39 125 -39q7 0 12.5 4t8.5 10t2 13t-6 12q-3 2 -14 16q-14 20 -24 39zM139 154l-17 -11q-21 -14 -43 -21l8 14l16 32l-25 24q-30 29 -30 64q0 30 22 55.5t58.5 41t79.5 15.5t79.5 -15.5t58.5 -41t22 -55.5t-22 -55.5t-58.5 -41t-79.5 -15.5q-25 0 -49 6z
M498 96l-24 -24l15 -31l8 -15q-22 7 -43 21l-17 11l-20 -4q-24 -6 -49 -6q-40 0 -74.5 13.5t-56.5 36.5q50 5 91 27.5t64.5 56.5t23.5 74l-1 10q49 -11 81 -40.5t32 -65t-30 -64.5z" />
    <glyph glyph-name="star-half" unicode="&#xf089;" horiz-adv-x="576" 
d="M288 63l-124 -66l23 139l-100 98l139 20l62 126v68q-9 0 -16.5 -4.5t-12.5 -13.5l-65 -132l-146 -21q-13 -2 -20.5 -12t-7 -22t9.5 -21l106 -103l-25 -145q-2 -13 4.5 -23t18.5 -13.5t23 2.5l131 68v55z" />
    <glyph glyph-name="lemon" unicode="&#xf094;" 
d="M484 420q-21 21 -48 26.5t-49 -7.5q-8 -5 -23 -5q-10 0 -33 2q-43 4 -68 3q-43 -3 -82 -19q-47 -21 -89.5 -63.5t-63.5 -90.5q-16 -38 -19 -81q-1 -25 3 -68q2 -23 2 -33q0 -15 -5 -23q-13 -22 -7.5 -49t26.5 -48t48 -26.5t49 7.5q8 5 23 5q10 0 33 -2q43 -4 68 -3
q43 3 82 19q47 21 89.5 63.5t63.5 90.5q16 38 19 81q1 25 -3 68q-2 23 -2 33q0 15 5 23q13 22 7.5 49t-26.5 48zM462 347q-10 -16 -11 -40q-1 -14 2 -46q3 -39 2 -60q-3 -36 -16 -67q-17 -38 -52 -73t-73 -52q-31 -13 -67 -16q-21 -1 -60 2q-32 3 -46 2q-24 -1 -40 -11
q-11 -6 -26 2t-23 23t-2 26q10 16 11 40q1 14 -2 46q-3 39 -2 60q3 36 16 67q17 38 52 73t73 52q31 13 67 16q21 1 60 -2q32 -3 46 -2q24 1 40 11q11 6 26 -2t23 -23t2 -26zM292 338q1 -8 -4 -14.5t-14 -7.5q-26 -3 -58.5 -27t-56.5 -56.5t-27 -58.5q-1 -9 -7.5 -14t-15 -4
t-13.5 7.5t-4 14.5q5 36 34 77q28 39 68 67.5t76 33.5q8 1 14.5 -4t7.5 -14z" />
    <glyph glyph-name="credit-card" unicode="&#xf09d;" horiz-adv-x="576" 
d="M528 416h-480q-20 0 -34 -14t-14 -34v-352q0 -20 14 -34t34 -14h480q20 0 34 14t14 34v352q0 20 -14 34t-34 14zM54 368h468q2 0 4 -2t2 -4v-42h-480v42q0 2 2 4t4 2zM522 16h-468q-2 0 -4 2t-2 4v170h480v-170q0 -2 -2 -4t-4 -2zM192 116v-40q0 -5 -3.5 -8.5t-8.5 -3.5
h-72q-5 0 -8.5 3.5t-3.5 8.5v40q0 5 3.5 8.5t8.5 3.5h72q5 0 8.5 -3.5t3.5 -8.5zM384 116v-40q0 -5 -3.5 -8.5t-8.5 -3.5h-136q-5 0 -8.5 3.5t-3.5 8.5v40q0 5 3.5 8.5t8.5 3.5h136q5 0 8.5 -3.5t3.5 -8.5z" />
    <glyph glyph-name="hdd" unicode="&#xf0a0;" horiz-adv-x="576" 
d="M567 212l-105 151q-6 10 -16.5 15.5t-22.5 5.5h-270q-12 0 -22.5 -5.5t-16.5 -15.5l-105 -151q-9 -12 -9 -27v-137q0 -20 14 -34t34 -14h480q20 0 34 14t14 34v137q0 15 -9 27zM153 336h270l78 -112h-426zM528 48h-480v128h480v-128zM496 112q0 -13 -9.5 -22.5
t-22.5 -9.5t-22.5 9.5t-9.5 22.5t9.5 22.5t22.5 9.5t22.5 -9.5t9.5 -22.5zM400 112q0 -13 -9.5 -22.5t-22.5 -9.5t-22.5 9.5t-9.5 22.5t9.5 22.5t22.5 9.5t22.5 -9.5t9.5 -22.5z" />
    <glyph glyph-name="hand-point-right" unicode="&#xf0a4;" 
d="M429 310h-86q2 11 2 23q0 36 -25 59.5t-67 23.5q-24 0 -40 -18q-10 -11 -24 -39q-8 -15 -12 -22q-9 -14 -26 -33v0q-12 -13 -18.5 -18.5t-11.5 -5.5h-3q-9 8 -22 8h-64q-13 0 -22.5 -8.5t-9.5 -20.5v-230q0 -12 9.5 -20.5t22.5 -8.5h64q13 0 22 8h3q8 0 19 -4l22 -11
q24 -12 38 -17q25 -8 48 -8h21q46 0 72.5 25.5t27.5 65.5q10 14 14 30.5t2 32.5q6 10 8 22h36q34 0 58.5 24.5t24.5 58.5t-24.5 58.5t-58.5 24.5zM429 192h-91q10 -12 9.5 -30t-14.5 -31q8 -14 3.5 -30.5t-16.5 -23.5q5 -29 -8 -45t-43 -16h-21q-16 0 -34 6q-10 4 -31 14
q-17 9 -26 13q-16 6 -29 7v176q17 2 33 14q11 9 26 26q20 22 31 40q5 8 14 27q8 15 11 20q6 9 10 9q19 0 31 -8q13 -9 13 -27q0 -14 -6 -27q-3 -8 -11 -21q-10 -15 -10 -23h159q14 0 24.5 -10.5t10.5 -24.5t-10.5 -24.5t-24.5 -10.5zM88 64q0 -10 -7 -17t-17 -7t-17 7t-7 17
t7 17t17 7t17 -7t7 -17z" />
    <glyph glyph-name="hand-point-left" unicode="&#xf0a5;" 
d="M0 227q0 -34 24.5 -58.5t58.5 -24.5h36q2 -12 8 -22q-2 -16 2 -32.5t14 -30.5q1 -40 27.5 -65.5t72.5 -25.5h21q23 0 48 8q14 5 38 17l22 11q11 4 19 4h3q9 -8 22 -8h64q13 0 22.5 8.5t9.5 20.5v230q0 12 -9.5 20.5t-22.5 8.5h-64q-13 0 -22 -8h-3q-5 0 -11.5 5.5
t-18.5 18.5v0q-17 19 -26 33q-4 7 -12 22q-14 28 -24 39q-16 18 -40 18q-42 0 -67 -23.5t-25 -59.5q0 -12 2 -23h-86q-34 0 -58.5 -24.5t-24.5 -58.5zM48 227q0 14 10.5 24.5t24.5 10.5h159q0 8 -10 23q-8 13 -11 21q-6 13 -6 27q0 18 13 27q12 8 31 8q4 0 10 -9
q3 -5 11 -20q9 -19 14 -27q11 -18 31 -40q15 -17 26 -26q16 -12 33 -14v-176q-13 -1 -29 -7q-9 -4 -26 -13q-21 -10 -31 -14q-18 -6 -34 -6h-21q-30 0 -43 16t-8 45q-12 7 -16.5 23.5t3.5 30.5q-14 13 -14.5 31t9.5 30h-91q-14 0 -24.5 10.5t-10.5 24.5zM448 88q10 0 17 -7
t7 -17t-7 -17t-17 -7t-17 7t-7 17t7 17t17 7z" />
    <glyph glyph-name="hand-point-up" unicode="&#xf0a6;" horiz-adv-x="448" 
d="M106 365v-86q-11 2 -23 2q-36 0 -59.5 -25t-23.5 -67q0 -24 18 -40q11 -10 39 -24q15 -8 22 -12q14 -9 33 -26v0q13 -12 18.5 -18.5t5.5 -11.5v-3q-8 -9 -8 -22v-64q0 -13 8.5 -22.5t20.5 -9.5h230q12 0 20.5 9.5t8.5 22.5v64q0 13 -8 22v3q0 8 4 19l11 22q12 24 17 38
q8 25 8 48v21q0 46 -25.5 72.5t-65.5 27.5q-14 10 -30.5 14t-32.5 2q-10 6 -22 8v36q0 34 -24.5 58.5t-58.5 24.5t-58.5 -24.5t-24.5 -58.5zM224 365v-91q12 10 30 9.5t31 -14.5q14 8 30.5 3.5t23.5 -16.5q29 5 45 -8t16 -43v-21q0 -16 -6 -34q-4 -10 -14 -31
q-9 -17 -13 -26q-6 -16 -7 -29h-176q-2 17 -14 33q-9 11 -26 26q-22 20 -40 31q-8 5 -27 14q-15 8 -20 11q-9 6 -9 10q0 19 8 31q9 13 27 13q14 0 27 -6q8 -3 21 -11q15 -10 23 -10v159q0 14 10.5 24.5t24.5 10.5t24.5 -10.5t10.5 -24.5zM352 24q10 0 17 -7t7 -17t-7 -17
t-17 -7t-17 7t-7 17t7 17t17 7z" />
    <glyph glyph-name="hand-point-down" unicode="&#xf0a7;" horiz-adv-x="448" 
d="M189 -64q34 0 58.5 24.5t24.5 58.5v36q12 2 22 8q16 -2 32.5 2t30.5 14q40 1 65.5 27.5t25.5 72.5v21q0 23 -8 48q-5 14 -17 38l-11 22q-4 11 -4 19v3q8 9 8 22v64q0 13 -8.5 22.5t-20.5 9.5h-230q-12 0 -20.5 -9.5t-8.5 -22.5v-64q0 -13 8 -22v-3q0 -5 -5.5 -11.5
t-18.5 -18.5v0q-19 -17 -33 -26q-7 -4 -22 -12q-28 -14 -39 -24q-18 -16 -18 -40q0 -42 23.5 -67t59.5 -25q12 0 23 2v-86q0 -34 24.5 -58.5t58.5 -24.5zM189 -16q-14 0 -24.5 10.5t-10.5 24.5v159q-8 0 -23 -10q-13 -8 -21 -11q-13 -6 -27 -6q-18 0 -27 13q-8 12 -8 31
q0 4 9 10q5 3 20 11q19 9 27 14q18 11 40 31q17 15 26 26q12 16 14 33h176q1 -13 7 -29q4 -9 13 -26q10 -21 14 -31q6 -18 6 -34v-21q0 -30 -16 -43t-45 -8q-7 -12 -23.5 -16.5t-30.5 3.5q-13 -14 -31 -14.5t-30 9.5v-91q0 -14 -10.5 -24.5t-24.5 -10.5zM328 384q0 10 7 17
t17 7t17 -7t7 -17t-7 -17t-17 -7t-17 7t-7 17z" />
    <glyph glyph-name="copy" unicode="&#xf0c5;" horiz-adv-x="448" 
d="M434 382l-52 52q-14 14 -34 14h-172q-20 0 -34 -14t-14 -34v-48h-80q-20 0 -34 -14t-14 -34v-320q0 -20 14 -34t34 -14h224q20 0 34 14t14 34v48h80q20 0 34 14t14 34v268q0 20 -14 34zM266 -16h-212q-2 0 -4 2t-2 4v308q0 2 2 4t4 2h74v-224q0 -20 14 -34t34 -14h96v-42
q0 -2 -2 -4t-4 -2zM394 80h-212q-2 0 -4 2t-2 4v308q0 2 2 4t4 2h106v-88q0 -10 7 -17t17 -7h88v-202q0 -2 -2 -4t-4 -2zM400 336h-64v64h10q2 0 4 -2l48 -48q2 -2 2 -4v-10z" />
    <glyph glyph-name="save" unicode="&#xf0c7;" horiz-adv-x="448" 
d="M434 318l-84 84q-14 14 -34 14h-268q-20 0 -34 -14t-14 -34v-352q0 -20 14 -34t34 -14h352q20 0 34 14t14 34v268q0 20 -14 34zM272 368v-80h-128v80h128zM394 16h-340q-2 0 -4 2t-2 4v340q0 2 2 4t4 2h42v-104q0 -10 7 -17t17 -7h176q10 0 17 7t7 17v100l78 -78
q2 -2 2 -4v-260q0 -2 -2 -4t-4 -2zM224 216q-36 0 -62 -26t-26 -62t26 -62t62 -26t62 26t26 62t-26 62t-62 26zM224 88q-17 0 -28.5 11.5t-11.5 28.5t11.5 28.5t28.5 11.5t28.5 -11.5t11.5 -28.5t-11.5 -28.5t-28.5 -11.5z" />
    <glyph glyph-name="square" unicode="&#xf0c8;" horiz-adv-x="448" 
d="M400 416h-352q-20 0 -34 -14t-14 -34v-352q0 -20 14 -34t34 -14h352q20 0 34 14t14 34v352q0 20 -14 34t-34 14zM394 16h-340q-2 0 -4 2t-2 4v340q0 2 2 4t4 2h340q2 0 4 -2t2 -4v-340q0 -2 -2 -4t-4 -2z" />
    <glyph glyph-name="envelope" unicode="&#xf0e0;" 
d="M464 384h-416q-20 0 -34 -14t-14 -34v-288q0 -20 14 -34t34 -14h416q20 0 34 14t14 34v288q0 20 -14 34t-34 14zM464 336v-41q-35 -29 -135 -106l-9 -8q-20 -17 -32 -24q-19 -13 -32 -13t-32 13q-12 7 -32 24l-9 8q-100 78 -135 106v41h416zM48 48v186l115 -92
q26 -21 41 -30q28 -16 52 -16t51 16q16 9 41 30l116 92v-186h-416z" />
    <glyph glyph-name="lightbulb" unicode="&#xf0eb;" horiz-adv-x="384" 
d="M272 20v-28q0 -8 -4.5 -14t-11.5 -9v-9q0 -10 -7 -17t-17 -7h-80q-10 0 -17 7t-7 17v9q-7 3 -11.5 9t-4.5 14v28q0 5 3.5 8.5t8.5 3.5h136q5 0 8.5 -3.5t3.5 -8.5zM128 272q0 26 19 45t45 19q7 0 11.5 4.5t4.5 11.5t-4.5 11.5t-11.5 4.5q-40 0 -68 -28t-28 -68
q0 -7 4.5 -11.5t11.5 -4.5t11.5 4.5t4.5 11.5zM192 400q35 0 64.5 -17t46.5 -46.5t17 -64.5q0 -29 -8 -48q-5 -11 -21 -29.5t-24 -31.5q-15 -22 -28 -51h-94q-13 29 -28 51q-8 13 -24 31.5t-21 29.5q-8 18 -8 48q0 35 17 64.5t46.5 46.5t64.5 17zM192 448q-48 0 -88.5 -23.5
t-64 -64t-23.5 -88.5q0 -40 11 -66q8 -16 29 -42q16 -20 25 -34q15 -23 26 -51q2 -7 8 -11t14 -4h126q8 0 14 4t8 11q11 28 26 51q9 14 25 34q21 26 29 42q11 26 11 66q0 48 -23.5 88.5t-64 64t-88.5 23.5z" />
    <glyph glyph-name="bell" unicode="&#xf0f3;" horiz-adv-x="448" 
d="M439 86q-1 1 -3 4q-23 24 -34 47q-18 40 -18 103q0 58 -36 101t-92 54v21q0 13 -9.5 22.5t-22.5 9.5t-22.5 -9.5t-9.5 -22.5v-21q-56 -11 -92 -54t-36 -101q0 -63 -18 -103q-11 -23 -34 -47l-3 -4q-9 -10 -9 -22.5t9 -22t23 -9.5h384q14 0 23 9.5t9 22t-9 22.5zM68 80
q44 59 44 159v1q0 30 15 56t41 41t56 15t56 -15t41 -41t15 -56v-1q0 -100 44 -159h-312zM224 -64q26 0 45 18.5t19 45.5h-128q0 -27 19 -45.5t45 -18.5z" />
    <glyph glyph-name="hospital" unicode="&#xf0f8;" horiz-adv-x="448" 
d="M128 204v40q0 5 3.5 8.5t8.5 3.5h40q5 0 8.5 -3.5t3.5 -8.5v-40q0 -5 -3.5 -8.5t-8.5 -3.5h-40q-5 0 -8.5 3.5t-3.5 8.5zM268 192h40q5 0 8.5 3.5t3.5 8.5v40q0 5 -3.5 8.5t-8.5 3.5h-40q-5 0 -8.5 -3.5t-3.5 -8.5v-40q0 -5 3.5 -8.5t8.5 -3.5zM192 108v40q0 5 -3.5 8.5
t-8.5 3.5h-40q-5 0 -8.5 -3.5t-3.5 -8.5v-40q0 -5 3.5 -8.5t8.5 -3.5h40q5 0 8.5 3.5t3.5 8.5zM268 96h40q5 0 8.5 3.5t3.5 8.5v40q0 5 -3.5 8.5t-8.5 3.5h-40q-5 0 -8.5 -3.5t-3.5 -8.5v-40q0 -5 3.5 -8.5t8.5 -3.5zM448 -28v-36h-448v36q0 5 3.5 8.5t8.5 3.5h20v379
q0 9 7 15t17 6h88v40q0 10 7 17t17 7h112q10 0 17 -7t7 -17v-40h89q9 0 16.5 -6t7.5 -15v-379h19q5 0 8.5 -3.5t3.5 -8.5zM80 -15h112v67q0 5 3.5 8.5t8.5 3.5h40q5 0 8.5 -3.5t3.5 -8.5v-67h113v351h-65v-24q0 -10 -7 -17t-17 -7h-112q-10 0 -17 7t-7 17v24h-64v-351z
M266 384h-26v26q0 2 -2 4t-4 2h-20q-2 0 -4 -2t-2 -4v-26h-26q-2 0 -4 -2t-2 -4v-20q0 -2 2 -4t4 -2h26v-26q0 -2 2 -4t4 -2h20q2 0 4 2t2 4v26h26q2 0 4 2t2 4v20q0 2 -2 4t-4 2z" />
    <glyph glyph-name="plus-square" unicode="&#xf0fe;" horiz-adv-x="448" 
d="M352 208v-32q0 -5 -3.5 -8.5t-8.5 -3.5h-88v-88q0 -5 -3.5 -8.5t-8.5 -3.5h-32q-5 0 -8.5 3.5t-3.5 8.5v88h-88q-5 0 -8.5 3.5t-3.5 8.5v32q0 5 3.5 8.5t8.5 3.5h88v88q0 5 3.5 8.5t8.5 3.5h32q5 0 8.5 -3.5t3.5 -8.5v-88h88q5 0 8.5 -3.5t3.5 -8.5zM448 368v-352
q0 -20 -14 -34t-34 -14h-352q-20 0 -34 14t-14 34v352q0 20 14 34t34 14h352q20 0 34 -14t14 -34zM400 22v340q0 2 -2 4t-4 2h-340q-2 0 -4 -2t-2 -4v-340q0 -2 2 -4t4 -2h340q2 0 4 2t2 4z" />
    <glyph glyph-name="circle" unicode="&#xf111;" 
d="M256 440q-67 0 -124 -33.5t-90.5 -90.5t-33.5 -124t33.5 -124t90.5 -90.5t124 -33.5t124 33.5t90.5 90.5t33.5 124t-33.5 124t-90.5 90.5t-124 33.5zM256 -8q-54 0 -100 27t-73 73t-27 100t27 100t73 73t100 27t100 -27t73 -73t27 -100t-27 -100t-73 -73t-100 -27z" />
    <glyph glyph-name="smile" unicode="&#xf118;" horiz-adv-x="496" 
d="M248 440q-67 0 -124 -33.5t-90.5 -90.5t-33.5 -124t33.5 -124t90.5 -90.5t124 -33.5t124 33.5t90.5 90.5t33.5 124t-33.5 124t-90.5 90.5t-124 33.5zM248 -8q-54 0 -100 27t-73 73t-27 100t27 100t73 73t100 27t100 -27t73 -73t27 -100t-27 -100t-73 -73t-100 -27z
M168 208q13 0 22.5 9.5t9.5 22.5t-9.5 22.5t-22.5 9.5t-22.5 -9.5t-9.5 -22.5t9.5 -22.5t22.5 -9.5zM328 208q13 0 22.5 9.5t9.5 22.5t-9.5 22.5t-22.5 9.5t-22.5 -9.5t-9.5 -22.5t9.5 -22.5t22.5 -9.5zM332 135q-16 -18 -38 -28.5t-46 -10.5t-46 10.5t-38 28.5q-6 8 -16 9
t-17.5 -5.5t-8.5 -16.5t5 -17q23 -27 54.5 -42t66.5 -15t66.5 15t54.5 42q6 7 5 17t-8.5 16.5t-17.5 5.5t-16 -9z" />
    <glyph glyph-name="frown" unicode="&#xf119;" horiz-adv-x="496" 
d="M248 440q-67 0 -124 -33.5t-90.5 -90.5t-33.5 -124t33.5 -124t90.5 -90.5t124 -33.5t124 33.5t90.5 90.5t33.5 124t-33.5 124t-90.5 90.5t-124 33.5zM248 -8q-54 0 -100 27t-73 73t-27 100t27 100t73 73t100 27t100 -27t73 -73t27 -100t-27 -100t-73 -73t-100 -27z
M168 208q13 0 22.5 9.5t9.5 22.5t-9.5 22.5t-22.5 9.5t-22.5 -9.5t-9.5 -22.5t9.5 -22.5t22.5 -9.5zM328 272q-13 0 -22.5 -9.5t-9.5 -22.5t9.5 -22.5t22.5 -9.5t22.5 9.5t9.5 22.5t-9.5 22.5t-22.5 9.5zM248 144q-30 0 -57 -12.5t-47 -36.5q-6 -7 -5 -17t8.5 -16.5
t17.5 -5.5t16 9q13 15 30.5 23t36.5 8t36.5 -8t30.5 -23q6 -8 16 -9t17.5 5.5t8.5 16.5t-5 17q-20 24 -47 36.5t-57 12.5z" />
    <glyph glyph-name="meh" unicode="&#xf11a;" horiz-adv-x="496" 
d="M248 440q-67 0 -124 -33.5t-90.5 -90.5t-33.5 -124t33.5 -124t90.5 -90.5t124 -33.5t124 33.5t90.5 90.5t33.5 124t-33.5 124t-90.5 90.5t-124 33.5zM248 -8q-54 0 -100 27t-73 73t-27 100t27 100t73 73t100 27t100 -27t73 -73t27 -100t-27 -100t-73 -73t-100 -27z
M168 208q13 0 22.5 9.5t9.5 22.5t-9.5 22.5t-22.5 9.5t-22.5 -9.5t-9.5 -22.5t9.5 -22.5t22.5 -9.5zM328 272q-13 0 -22.5 -9.5t-9.5 -22.5t9.5 -22.5t22.5 -9.5t22.5 9.5t9.5 22.5t-9.5 22.5t-22.5 9.5zM336 128h-176q-10 0 -17 -7t-7 -17t7 -17t17 -7h176q10 0 17 7t7 17
t-7 17t-17 7z" />
    <glyph glyph-name="keyboard" unicode="&#xf11c;" horiz-adv-x="576" 
d="M528 384h-480q-20 0 -34 -14t-14 -34v-288q0 -20 14 -34t34 -14h480q20 0 34 14t14 34v288q0 20 -14 34t-34 14zM536 48q0 -3 -2.5 -5.5t-5.5 -2.5h-480q-3 0 -5.5 2.5t-2.5 5.5v288q0 3 2.5 5.5t5.5 2.5h480q3 0 5.5 -2.5t2.5 -5.5v-288zM170 178v28q0 5 -3.5 8.5
t-8.5 3.5h-28q-5 0 -8.5 -3.5t-3.5 -8.5v-28q0 -5 3.5 -8.5t8.5 -3.5h28q5 0 8.5 3.5t3.5 8.5zM266 178v28q0 5 -3.5 8.5t-8.5 3.5h-28q-5 0 -8.5 -3.5t-3.5 -8.5v-28q0 -5 3.5 -8.5t8.5 -3.5h28q5 0 8.5 3.5t3.5 8.5zM362 178v28q0 5 -3.5 8.5t-8.5 3.5h-28q-5 0 -8.5 -3.5
t-3.5 -8.5v-28q0 -5 3.5 -8.5t8.5 -3.5h28q5 0 8.5 3.5t3.5 8.5zM458 178v28q0 5 -3.5 8.5t-8.5 3.5h-28q-5 0 -8.5 -3.5t-3.5 -8.5v-28q0 -5 3.5 -8.5t8.5 -3.5h28q5 0 8.5 3.5t3.5 8.5zM122 96v28q0 5 -3.5 8.5t-8.5 3.5h-28q-5 0 -8.5 -3.5t-3.5 -8.5v-28q0 -5 3.5 -8.5
t8.5 -3.5h28q5 0 8.5 3.5t3.5 8.5zM506 96v28q0 5 -3.5 8.5t-8.5 3.5h-28q-5 0 -8.5 -3.5t-3.5 -8.5v-28q0 -5 3.5 -8.5t8.5 -3.5h28q5 0 8.5 3.5t3.5 8.5zM122 260v28q0 5 -3.5 8.5t-8.5 3.5h-28q-5 0 -8.5 -3.5t-3.5 -8.5v-28q0 -5 3.5 -8.5t8.5 -3.5h28q5 0 8.5 3.5
t3.5 8.5zM218 260v28q0 5 -3.5 8.5t-8.5 3.5h-28q-5 0 -8.5 -3.5t-3.5 -8.5v-28q0 -5 3.5 -8.5t8.5 -3.5h28q5 0 8.5 3.5t3.5 8.5zM314 260v28q0 5 -3.5 8.5t-8.5 3.5h-28q-5 0 -8.5 -3.5t-3.5 -8.5v-28q0 -5 3.5 -8.5t8.5 -3.5h28q5 0 8.5 3.5t3.5 8.5zM410 260v28
q0 5 -3.5 8.5t-8.5 3.5h-28q-5 0 -8.5 -3.5t-3.5 -8.5v-28q0 -5 3.5 -8.5t8.5 -3.5h28q5 0 8.5 3.5t3.5 8.5zM506 260v28q0 5 -3.5 8.5t-8.5 3.5h-28q-5 0 -8.5 -3.5t-3.5 -8.5v-28q0 -5 3.5 -8.5t8.5 -3.5h28q5 0 8.5 3.5t3.5 8.5zM408 102v16q0 5 -3.5 8.5t-8.5 3.5h-216
q-5 0 -8.5 -3.5t-3.5 -8.5v-16q0 -5 3.5 -8.5t8.5 -3.5h216q5 0 8.5 3.5t3.5 8.5z" />
    <glyph glyph-name="calendar" unicode="&#xf133;" horiz-adv-x="448" 
d="M400 384h-48v52q0 5 -3.5 8.5t-8.5 3.5h-40q-5 0 -8.5 -3.5t-3.5 -8.5v-52h-128v52q0 5 -3.5 8.5t-8.5 3.5h-40q-5 0 -8.5 -3.5t-3.5 -8.5v-52h-48q-20 0 -34 -14t-14 -34v-352q0 -20 14 -34t34 -14h352q20 0 34 14t14 34v352q0 20 -14 34t-34 14zM394 -16h-340
q-2 0 -4 2t-2 4v298h352v-298q0 -2 -2 -4t-4 -2z" />
    <glyph glyph-name="play-circle" unicode="&#xf144;" 
d="M372 210l-176 107q-12 7 -24 0t-12 -21v-208q0 -14 12 -21t24 0l176 101q12 7 12 21t-12 21zM504 192q0 67 -33.5 124t-90.5 90.5t-124 33.5t-124 -33.5t-90.5 -90.5t-33.5 -124t33.5 -124t90.5 -90.5t124 -33.5t124 33.5t90.5 90.5t33.5 124zM56 192q0 54 27 100t73 73
t100 27t100 -27t73 -73t27 -100t-27 -100t-73 -73t-100 -27t-100 27t-73 73t-27 100z" />
    <glyph glyph-name="minus-square" unicode="&#xf146;" horiz-adv-x="448" 
d="M108 164q-5 0 -8.5 3.5t-3.5 8.5v32q0 5 3.5 8.5t8.5 3.5h232q5 0 8.5 -3.5t3.5 -8.5v-32q0 -5 -3.5 -8.5t-8.5 -3.5h-232zM448 368v-352q0 -20 -14 -34t-34 -14h-352q-20 0 -34 14t-14 34v352q0 20 14 34t34 14h352q20 0 34 -14t14 -34zM400 22v340q0 2 -2 4t-4 2h-340
q-2 0 -4 -2t-2 -4v-340q0 -2 2 -4t4 -2h340q2 0 4 2t2 4z" />
    <glyph glyph-name="check-square" unicode="&#xf14a;" horiz-adv-x="448" 
d="M400 416h-352q-20 0 -34 -14t-14 -34v-352q0 -20 14 -34t34 -14h352q20 0 34 14t14 34v352q0 20 -14 34t-34 14zM400 16h-352v352h352v-352zM364 258l-172 -171q-4 -4 -9 -4t-8 4l-91 91q-4 4 -4 9t4 8l23 23q3 3 8 3t9 -3l59 -61l142 140q3 4 8 4t9 -4l22 -22q4 -4 4 -9
t-4 -8z" />
    <glyph glyph-name="share-square" unicode="&#xf14d;" horiz-adv-x="576" 
d="M562 290l-144 144q-15 14 -34.5 14t-33.5 -13.5t-14 -34.5v-57q-73 -3 -121 -18q-53 -17 -83 -50q-36 -40 -36 -99q0 -45 22.5 -82.5t62.5 -62.5q18 -11 37.5 -5.5t30 23t3.5 38.5q-9 27 -8 40q2 16 22.5 25.5t69.5 13.5v-54q0 -21 14 -34.5t33.5 -13.5t34.5 14l144 144
q14 14 14 34t-14 34zM384 112v104q-72 -1 -112 -11q-49 -13 -66 -43q-19 -32 0 -90q-26 16 -42 39q-20 29 -20 65q0 51 38 80q31 23 91 33q41 6 111 7v104l144 -144zM409 28q11 3 21 9q6 4 12 0.5t6 -10.5v-43q0 -20 -14 -34t-34 -14h-352q-20 0 -34 14t-14 34v352
q0 20 14 34t34 14h132q5 0 8.5 -3.5t3.5 -8.5v-4q0 -9 -8 -12q-20 -8 -38 -18q-3 -2 -6 -2h-86q-2 0 -4 -2t-2 -4v-340q0 -2 2 -4t4 -2h340q2 0 4 2t2 4v26q0 4 2.5 7t6.5 5z" />
    <glyph glyph-name="compass" unicode="&#xf14e;" horiz-adv-x="496" 
d="M348 318l-144 -66q-11 -5 -16 -16l-66 -144q-4 -8 -0.5 -15.5t11 -11t15.5 0.5l144 66q11 5 16 16l66 144q4 8 0.5 15.5t-11 11t-15.5 -0.5zM271 169q-10 -9 -23 -9t-22.5 9.5t-9.5 22.5t9.5 22.5t22.5 9.5t22.5 -9.5t9.5 -22.5t-9 -23zM248 440q-67 0 -124 -33.5
t-90.5 -90.5t-33.5 -124t33.5 -124t90.5 -90.5t124 -33.5t124 33.5t90.5 90.5t33.5 124t-33.5 124t-90.5 90.5t-124 33.5zM248 -8q-54 0 -100 27t-73 73t-27 100t27 100t73 73t100 27t100 -27t73 -73t27 -100t-27 -100t-73 -73t-100 -27z" />
    <glyph glyph-name="caret-square-down" unicode="&#xf150;" horiz-adv-x="448" 
d="M125 240h198q8 0 11 -7.5t-3 -12.5l-98 -99q-4 -3 -9 -3t-8 3l-99 99q-6 5 -3 12.5t11 7.5zM448 368v-352q0 -20 -14 -34t-34 -14h-352q-20 0 -34 14t-14 34v352q0 20 14 34t34 14h352q20 0 34 -14t14 -34zM400 22v340q0 2 -2 4t-4 2h-340q-2 0 -4 -2t-2 -4v-340
q0 -2 2 -4t4 -2h340q2 0 4 2t2 4z" />
    <glyph glyph-name="caret-square-up" unicode="&#xf151;" horiz-adv-x="448" 
d="M323 144h-198q-8 0 -11 7.5t3 13.5l99 98q3 3 8 3t8 -3l99 -98q6 -6 3 -13.5t-11 -7.5zM448 368v-352q0 -20 -14 -34t-34 -14h-352q-20 0 -34 14t-14 34v352q0 20 14 34t34 14h352q20 0 34 -14t14 -34zM400 22v340q0 2 -2 4t-4 2h-340q-2 0 -4 -2t-2 -4v-340q0 -2 2 -4
t4 -2h340q2 0 4 2t2 4z" />
    <glyph glyph-name="caret-square-right" unicode="&#xf152;" horiz-adv-x="448" 
d="M176 93v198q0 8 7.5 11t13.5 -3l98 -98q3 -4 3 -9t-3 -8l-98 -99q-6 -6 -13.5 -3t-7.5 11zM448 368v-352q0 -20 -14 -34t-34 -14h-352q-20 0 -34 14t-14 34v352q0 20 14 34t34 14h352q20 0 34 -14t14 -34zM400 22v340q0 2 -2 4t-4 2h-340q-2 0 -4 -2t-2 -4v-340
q0 -2 2 -4t4 -2h340q2 0 4 2t2 4z" />
    <glyph glyph-name="file" unicode="&#xf15b;" horiz-adv-x="384" 
d="M370 350l-84 84q-14 14 -34 14h-204q-20 0 -34 -14t-14 -34v-416q0 -20 14 -34t34 -14h288q20 0 34 14t14 34v332q0 20 -14 34zM332 320h-76v76zM48 -16v416h160v-104q0 -10 7 -17t17 -7h104v-288h-288z" />
    <glyph glyph-name="file-alt" unicode="&#xf15c;" horiz-adv-x="384" 
d="M288 200v-28q0 -5 -3.5 -8.5t-8.5 -3.5h-168q-5 0 -8.5 3.5t-3.5 8.5v28q0 5 3.5 8.5t8.5 3.5h168q5 0 8.5 -3.5t3.5 -8.5zM276 128h-168q-5 0 -8.5 -3.5t-3.5 -8.5v-28q0 -5 3.5 -8.5t8.5 -3.5h168q5 0 8.5 3.5t3.5 8.5v28q0 5 -3.5 8.5t-8.5 3.5zM384 316v-332
q0 -20 -14 -34t-34 -14h-288q-20 0 -34 14t-14 34v416q0 20 14 34t34 14h204q20 0 34 -14l84 -84q14 -14 14 -34zM256 396v-76h76zM336 -16v288h-104q-10 0 -17 7t-7 17v104h-160v-416h288z" />
    <glyph glyph-name="thumbs-up" unicode="&#xf164;" 
d="M466 161q14 24 14 50q0 34 -25 60t-61 26h-36q9 23 9 46q0 53 -26 80q-25 25 -70 25q-28 0 -44 -28q-9 -16 -18 -52q-5 -25 -9 -29q-11 -11 -35 -42.5t-34 -40.5h-99q-13 0 -22.5 -9.5t-9.5 -22.5v-240q0 -13 9.5 -22.5t22.5 -9.5h64q11 0 19.5 7t11.5 17q12 0 25 -4
q8 -3 26 -10q30 -12 50 -17q35 -9 77 -9h22q56 0 85 27q27 24 28 68q10 14 14.5 32t2.5 35q16 30 9 63zM405 107q8 -15 3 -32.5t-17 -24.5q5 -35 -11 -51q-14 -15 -43 -15h-37q-26 0 -53 7q-16 4 -46 14q-24 9 -36 12q-20 5 -37 5v186h11q13 0 32 20q11 11 33 41
q21 28 29 36q11 11 17 27q3 10 7 30q3 15 5 21q4 11 9 17q31 0 42 -19q6 -12 6 -38q0 -13 -5 -26q-3 -8 -10 -22t-9 -21q-5 -13 -5 -25h104q16 0 27 -12t11 -26t-7.5 -26t-14.5 -12q11 -12 10.5 -31.5t-15.5 -34.5zM88 16q0 -10 -7 -17t-17 -7t-17 7t-7 17t7 17t17 7t17 -7
t7 -17z" />
    <glyph glyph-name="thumbs-down" unicode="&#xf165;" 
d="M466 223q7 33 -9 63q2 17 -2.5 35t-14.5 32q-1 44 -28 68q-29 27 -85 27h-22q-42 0 -78 -9q-20 -5 -51 -18q-17 -7 -25 -9q-12 -4 -23 -4h-11q-9 8 -21 8h-64q-13 0 -22.5 -9.5t-9.5 -22.5v-240q0 -13 9.5 -22.5t22.5 -9.5h64q9 0 16 4.5t12 11.5h7q10 -9 34 -40.5
t35 -42.5q4 -4 9 -29q9 -36 18 -52q16 -28 44 -28q45 0 70 25q26 27 26 80q0 23 -9 46h36q36 0 61 26t25 60q0 26 -14 50zM64 152q-10 0 -17 7t-7 17t7 17t17 7t17 -7t7 -17t-7 -17t-17 -7zM394 135h-104q0 -12 5 -25q2 -7 9 -21t10 -22q5 -13 5 -26q0 -26 -6 -38
q-11 -19 -42 -19q-5 6 -9 17q-2 6 -5 21q-4 20 -7 30q-6 16 -17 27q-8 8 -29 36q-22 30 -33 41q-19 20 -32 20h-11v186q17 0 37 5q12 3 36 12q30 10 46 14q27 7 53 7h37q29 0 43 -15q16 -16 11 -51q12 -7 17 -24.5t-3 -32.5q15 -15 15.5 -34.5t-10.5 -31.5q7 0 14.5 -12
t7.5 -26t-11 -26t-27 -12z" />
    <glyph glyph-name="sun" unicode="&#xf185;" 
d="M220 -40l-20 49q-1 2 -2.5 2.5t-3.5 -0.5l-45 -28q-15 -9 -30 -4.5t-23.5 17.5t-4.5 29l12 52q1 2 0 3.5t-3 1.5l-54 4q-16 1 -26 13.5t-9 28.5t13 26l41 35q1 1 1 3t-1 3l-41 35q-12 10 -13 26t9 28.5t26 13.5l54 4q2 0 3 1.5t0 3.5l-12 52q-4 16 4.5 29t23.5 17.5
t30 -4.5l45 -28q2 -1 3.5 -0.5t2.5 2.5l20 49q6 15 21 21t30 0t21 -21l20 -49q1 -2 2.5 -2.5t3.5 0.5l45 28q15 9 30 4.5t23.5 -17.5t4.5 -29l-12 -52q-1 -2 0 -3.5t3 -1.5l53 -4q17 -1 27 -13.5t9 -28.5t-13 -26l-41 -35q-2 -1 -2 -3t2 -3l41 -35q12 -10 13 -26t-9 -28.5
t-27 -13.5l-53 -4q-2 0 -3 -1.5t0 -3.5l12 -52q4 -16 -4.5 -29t-23.5 -17.5t-30 4.5l-45 28q-2 1 -3.5 0.5t-2.5 -2.5l-20 -49q-6 -15 -21 -21t-30 0t-21 21zM237 25l19 -47l19 47q8 19 27.5 25t36.5 -5l43 -26l-12 49q-5 20 7 36.5t32 17.5l51 4l-39 32q-16 14 -16 34
t16 34l39 32l-51 4q-20 1 -32 17.5t-7 36.5l12 49l-43 -26q-17 -11 -36.5 -4.5t-27.5 24.5l-19 47l-19 -47q-8 -19 -27.5 -25t-36.5 5l-43 26l12 -49q5 -20 -7 -36.5t-32 -17.5l-51 -4l39 -32q16 -14 15.5 -34t-15.5 -34l-39 -32l51 -4q20 -1 32 -17.5t7 -36.5l-12 -49
l43 26q17 11 36.5 4.5t27.5 -24.5zM256 64q-35 0 -64.5 17t-46.5 46.5t-17 64.5t17 64.5t46.5 46.5t64.5 17t64.5 -17t46.5 -46.5t17 -64.5t-17 -64.5t-46.5 -46.5t-64.5 -17zM256 272q-33 0 -56.5 -23.5t-23.5 -56.5t23.5 -56.5t56.5 -23.5t56.5 23.5t23.5 56.5t-23.5 56.5
t-56.5 23.5z" />
    <glyph glyph-name="moon" unicode="&#xf186;" 
d="M279 -64q59 0 111 25t88 70q14 17 10.5 37t-19.5 32t-37 8q-41 -8 -77.5 8t-59 49t-22.5 74q0 36 18.5 67t49.5 49q19 10 23 30t-6.5 37.5t-32.5 21.5t-46 4q-69 0 -128 -34.5t-93.5 -93t-34.5 -128.5t34.5 -128.5t93.5 -93t128 -34.5zM279 400q19 0 38 -3
q-42 -24 -67 -66t-25 -92q0 -56 30.5 -101t80.5 -66t105 -11q-29 -36 -71.5 -56.5t-90.5 -20.5q-56 0 -104 28t-76 75.5t-28 104.5t28 104.5t76 75.5t104 28z" />
    <glyph glyph-name="caret-square-left" unicode="&#xf191;" horiz-adv-x="448" 
d="M272 291v-198q0 -8 -7.5 -11t-12.5 3l-99 99q-3 3 -3 8t3 8l99 99q5 6 12.5 3t7.5 -11zM448 368v-352q0 -20 -14 -34t-34 -14h-352q-20 0 -34 14t-14 34v352q0 20 14 34t34 14h352q20 0 34 -14t14 -34zM400 22v340q0 2 -2 4t-4 2h-340q-2 0 -4 -2t-2 -4v-340q0 -2 2 -4
t4 -2h340q2 0 4 2t2 4z" />
    <glyph glyph-name="dot-circle" unicode="&#xf192;" 
d="M256 392q54 0 100 -27t73 -73t27 -100t-27 -100t-73 -73t-100 -27t-100 27t-73 73t-27 100t27 100t73 73t100 27zM256 440q-67 0 -124 -33.5t-90.5 -90.5t-33.5 -124t33.5 -124t90.5 -90.5t124 -33.5t124 33.5t90.5 90.5t33.5 124t-33.5 124t-90.5 90.5t-124 33.5z
M256 272q-33 0 -56.5 -23.5t-23.5 -56.5t23.5 -56.5t56.5 -23.5t56.5 23.5t23.5 56.5t-23.5 56.5t-56.5 23.5z" />
    <glyph glyph-name="building" unicode="&#xf1ad;" horiz-adv-x="448" 
d="M128 300v40q0 5 3.5 8.5t8.5 3.5h40q5 0 8.5 -3.5t3.5 -8.5v-40q0 -5 -3.5 -8.5t-8.5 -3.5h-40q-5 0 -8.5 3.5t-3.5 8.5zM268 288h40q5 0 8.5 3.5t3.5 8.5v40q0 5 -3.5 8.5t-8.5 3.5h-40q-5 0 -8.5 -3.5t-3.5 -8.5v-40q0 -5 3.5 -8.5t8.5 -3.5zM140 192h40q5 0 8.5 3.5
t3.5 8.5v40q0 5 -3.5 8.5t-8.5 3.5h-40q-5 0 -8.5 -3.5t-3.5 -8.5v-40q0 -5 3.5 -8.5t8.5 -3.5zM268 192h40q5 0 8.5 3.5t3.5 8.5v40q0 5 -3.5 8.5t-8.5 3.5h-40q-5 0 -8.5 -3.5t-3.5 -8.5v-40q0 -5 3.5 -8.5t8.5 -3.5zM192 108v40q0 5 -3.5 8.5t-8.5 3.5h-40
q-5 0 -8.5 -3.5t-3.5 -8.5v-40q0 -5 3.5 -8.5t8.5 -3.5h40q5 0 8.5 3.5t3.5 8.5zM268 96h40q5 0 8.5 3.5t3.5 8.5v40q0 5 -3.5 8.5t-8.5 3.5h-40q-5 0 -8.5 -3.5t-3.5 -8.5v-40q0 -5 3.5 -8.5t8.5 -3.5zM448 -28v-36h-448v36q0 5 3.5 8.5t8.5 3.5h20v440q-1 10 6.5 17
t17.5 7h337q9 0 16.5 -7t6.5 -17v-440h20q5 0 8.5 -3.5t3.5 -8.5zM80 -15h112v67q0 5 3.5 8.5t8.5 3.5h40q5 0 8.5 -3.5t3.5 -8.5v-67h113v414l-289 1v-415z" />
    <glyph glyph-name="file-pdf" unicode="&#xf1c1;" horiz-adv-x="384" 
d="M370 350l-84 84q-14 14 -34 14h-204q-20 0 -34 -14t-14 -34v-416q0 -20 14 -34t34 -14h288q20 0 34 14t14 34v332q0 20 -14 34zM332 320h-76v76zM48 -16v416h160v-104q0 -10 7 -17t17 -7h104v-288h-288zM298 128q-13 13 -64 6q-25 15 -37 47v1q10 40 5 54q-2 13 -11 17.5
t-19 1t-12 -12.5q-6 -19 7 -67q-20 -46 -36 -74q-46 -24 -51 -46q-1 -7 4 -14.5t15.5 -8.5t23.5 10q16 14 34 44l12 4q38 13 56 16q14 -8 29.5 -12.5t27 -4.5t17 7t5.5 16.5t-6 15.5zM100 50q4 12 27 32l4 3q-9 -14 -17 -23q-6 -7 -10 -10t-4 -2zM182 241q5 0 5 -17t-3 -24
q-4 9 -4 25t2 16zM157 104q12 20 25 55q12 -23 30 -36q-16 -3 -43 -14zM289 109q-1 -1 -3 -1q-3 -1 -10 1q-10 2 -24 8q16 1 25 -0.5t11.5 -4t0.5 -3.5z" />
    <glyph glyph-name="file-word" unicode="&#xf1c2;" horiz-adv-x="384" 
d="M370 350l-84 84q-14 14 -34 14h-204q-20 0 -34 -14t-14 -34v-416q0 -20 14 -34t34 -14h288q20 0 34 14t14 34v332q0 20 -14 34zM332 320h-76v76zM48 -16v416h160v-104q0 -10 7 -17t17 -7h104v-288h-288zM268 192q-4 0 -7.5 -2.5t-4.5 -6.5l-10 -49q-10 -49 -11 -55v0
l-24 104q-1 4 -4 6.5t-8 2.5h-13q-4 0 -7.5 -2.5t-4.5 -6.5l-12 -51q-12 -47 -12 -53v0l-20 103q-1 5 -4 7.5t-8 2.5h-17q-5 0 -9 -4.5t-2 -10.5l33 -136q1 -4 4 -6.5t8 -2.5h25q4 0 7 2.5t4 6.5l18 72q3 9 3 17l3 -18l18 -71q1 -4 4.5 -6.5t7.5 -2.5h24q5 0 8 2.5t4 6.5
l35 136q1 6 -2.5 10.5t-9.5 4.5h-16z" />
    <glyph glyph-name="file-excel" unicode="&#xf1c3;" horiz-adv-x="384" 
d="M370 350l-84 84q-14 14 -34 14h-204q-20 0 -34 -14t-14 -34v-416q0 -20 14 -34t34 -14h288q20 0 34 14t14 34v332q0 20 -14 34zM332 320h-76v76zM48 -16v416h160v-104q0 -10 7 -17t17 -7h104v-288h-288zM260 224h-29q-7 0 -10 -6q-20 -36 -29 -58l-9 19q-5 11 -19 39
q-4 6 -11 6h-29q-7 0 -10.5 -6t0.5 -12l46 -78l-46 -78q-4 -6 -0.5 -12t10.5 -6h29q7 0 10 6q19 34 27 52l2 6l10 -21q5 -11 19 -37q3 -6 10 -6h29q7 0 10.5 6t-0.5 12l-46 78q11 17 46 78q4 6 0.5 12t-10.5 6z" />
    <glyph glyph-name="file-powerpoint" unicode="&#xf1c4;" horiz-adv-x="384" 
d="M370 350l-84 84q-14 14 -34 14h-204q-20 0 -34 -14t-14 -34v-416q0 -20 14 -34t34 -14h288q20 0 34 14t14 34v332q0 20 -14 34zM332 320h-76v76zM48 -16v416h160v-104q0 -10 7 -17t17 -7h104v-288h-288zM120 44v168q0 5 3.5 8.5t8.5 3.5h69q28 0 45.5 -18.5t17.5 -47.5
q0 -45 -33 -59q-18 -9 -55 -8h-7v-47q-1 -5 -4.5 -8.5t-7.5 -3.5h-25q-5 0 -8.5 3.5t-3.5 8.5zM169 131h23q11 0 17.5 7.5t6.5 19t-6.5 18.5t-17.5 7h-24v-52h1z" />
    <glyph glyph-name="file-image" unicode="&#xf1c5;" horiz-adv-x="384" 
d="M370 350l-84 84q-14 14 -34 14h-204q-20 0 -34 -14t-14 -34v-416q0 -20 14 -34t34 -14h288q20 0 34 14t14 34v332q0 20 -14 34zM332 320h-76v76zM48 -16v416h160v-104q0 -10 7 -17t17 -7h104v-288h-288zM80 32h224v128l-23 24q-4 3 -9 3t-8 -3l-88 -88l-39 40q-4 3 -9 3
t-9 -4l-39 -39v-64zM128 272q-20 0 -34 -14t-14 -34t14 -34t34 -14t34 14t14 34t-14 34t-34 14z" />
    <glyph glyph-name="file-archive" unicode="&#xf1c6;" horiz-adv-x="384" 
d="M370 350l-84 84q-14 14 -34 14h-204q-20 0 -34 -14t-14 -34v-416q0 -20 14 -34t34 -14h288q20 0 34 14t14 34v332q0 20 -14 34zM256 396l76 -76h-76v76zM336 -16h-288v416h80v-16h32v16h48v-104q0 -10 7 -17t17 -7h104v-288zM192 352h-32v32h32v-32zM160 352v-32h-32v32
h32zM160 288v-32h-32v32h32zM192 288h-32v32h32v-32zM194 182q-1 5 -4 7.5t-8 2.5h-22v32h-32v-32l-19 -97q-5 -24 10.5 -43.5t40.5 -19.5t40.5 19t10.5 44zM160 58q-13 0 -22.5 8t-9.5 19t9.5 19t23 8t23 -8t9.5 -19t-9.5 -19t-23.5 -8zM192 224h-32v32h32v-32z" />
    <glyph glyph-name="file-audio" unicode="&#xf1c7;" horiz-adv-x="384" 
d="M370 350l-84 84q-14 14 -34 14h-204q-20 0 -34 -14t-14 -34v-416q0 -20 14 -34t34 -14h288q20 0 34 14t14 34v332q0 20 -14 34zM332 320h-76v76zM48 -16v416h160v-104q0 -10 7 -17t17 -7h104v-288h-288zM192 60q0 -8 -7.5 -11t-12.5 3l-36 36h-28q-5 0 -8.5 3.5t-3.5 8.5
v56q0 4 3.5 8t8.5 4h28l36 36q5 6 12.5 3t7.5 -11v-136zM233 107q7 7 7 17t-7 17q-10 10 -5.5 23t17 17t23.5 -7q20 -21 20 -50t-20 -50q-11 -11 -23.5 -7t-17 16.5t5.5 23.5z" />
    <glyph glyph-name="file-video" unicode="&#xf1c8;" horiz-adv-x="384" 
d="M370 350l-84 84q-14 14 -34 14h-204q-20 0 -34 -14t-14 -34v-416q0 -20 14 -34t34 -14h288q20 0 34 14t14 34v332q0 20 -14 34zM332 320h-76v76zM48 -16v416h160v-104q0 -10 7 -17t17 -7h104v-288h-288zM277 195l-53 -52v37q0 8 -6 14t-14 6h-104q-8 0 -14 -6t-6 -14
v-104q0 -8 6 -14t14 -6h104q8 0 14 6t6 14v37l53 -52q7 -8 17 -4t10 15v112q0 11 -10 15t-17 -4z" />
    <glyph glyph-name="file-code" unicode="&#xf1c9;" horiz-adv-x="384" 
d="M370 350l-84 84q-14 14 -34 14h-204q-20 0 -34 -14t-14 -34v-416q0 -20 14 -34t34 -14h288q20 0 34 14t14 34v332q0 20 -14 34zM332 320h-76v76zM48 -16v416h160v-104q0 -10 7 -17t17 -7h104v-288h-288zM150 99l-33 29l33 29q2 2 2.5 6t-2.5 7l-17 18q-3 3 -6.5 3
t-6.5 -3l-57 -54q-3 -2 -3 -6t3 -6l57 -54q3 -3 6.5 -3t6.5 3l17 18q3 3 2.5 7t-2.5 6zM234 227l-24 7q-4 1 -7 -0.5t-4 -5.5l-55 -188q-1 -4 1 -7t5 -4l24 -7q4 -1 7 0.5t4 5.5l55 188q1 4 -1 7t-5 4zM321 134l-57 54q-3 3 -6.5 3t-6.5 -3l-17 -18q-3 -3 -2.5 -7t2.5 -6
l33 -29l-33 -29q-2 -2 -2.5 -6t2.5 -7l17 -18q3 -3 6.5 -3t6.5 3v0l57 54q3 2 3 6t-3 6z" />
    <glyph glyph-name="life-ring" unicode="&#xf1cd;" 
d="M256 -56q67 0 124 33.5t90.5 90.5t33.5 124t-33.5 124t-90.5 90.5t-124 33.5t-124 -33.5t-90.5 -90.5t-33.5 -124t33.5 -124t90.5 -90.5t124 -33.5zM153 21l53 53q24 -10 50 -10t50 10l53 -53q-47 -29 -103 -29t-103 29zM336 192q0 -33 -23.5 -56.5t-56.5 -23.5
t-56.5 23.5t-23.5 56.5t23.5 56.5t56.5 23.5t56.5 -23.5t23.5 -56.5zM427 89l-53 53q10 24 10 50t-10 50l53 53q29 -47 29 -103t-29 -103zM359 363l-53 -53q-24 10 -50 10t-50 -10l-53 53q47 29 103 29t103 -29zM85 295l53 -53q-10 -24 -10 -50t10 -50l-53 -53
q-29 47 -29 103t29 103z" />
    <glyph glyph-name="paper-plane" unicode="&#xf1d8;" 
d="M440 442l-416 -240q-17 -10 -22 -27.5t2.5 -34.5t25.5 -24l114 -48v-84q0 -22 16 -35.5t36.5 -12t34.5 18.5l43 60l112 -47q9 -3 19 -3q12 0 23 6q20 11 24 34l59 388q3 19 -7.5 34t-28.5 19.5t-35 -4.5zM192 -16v65l37 -15zM405 13l-154 63l140 203q5 7 2 14.5t-11 10
t-15 -3.5l-211 -185l-108 45l416 240z" />
    <glyph glyph-name="futbol" unicode="&#xf1e3;" horiz-adv-x="496" 
d="M484 269q-17 51 -52.5 90t-83.5 60t-100 21q-39 0 -77 -12q-64 -21 -107.5 -70.5t-58 -114t6.5 -128.5q17 -51 52.5 -90t83.5 -60t100 -21q39 0 77 12q64 21 107.5 70.5t58 114t-6.5 128.5zM409 75l-52 -6l-44 60l25 76l71 22l39 -37q-1 -47 -22 -89q-5 -10 -17 -26z
M409 310l-10 -53l-71 -22l-64 47v74l47 26q61 -20 98 -72zM185 382l47 -26v-74l-64 -47l-71 22l-10 53q38 52 98 72zM139 69l-53 6q-37 52 -38 115l39 37l71 -22l25 -75zM187 2l-22 48l43 61h79l44 -61l-22 -48l-2 -1q-59 -19 -120 1z" />
    <glyph glyph-name="newspaper" unicode="&#xf1ea;" horiz-adv-x="576" 
d="M552 384h-440q-15 0 -27.5 -9t-17.5 -23h-43q-10 0 -17 -7t-7 -17v-272q0 -23 16.5 -39.5t39.5 -16.5h496q10 0 17 7t7 17v336q0 10 -7 17t-17 7zM48 56v248h16v-248q0 -3 -2.5 -5.5t-5.5 -2.5t-5.5 2.5t-2.5 5.5zM528 48h-417l1 8v280h416v-288zM172 168h136
q5 0 8.5 3.5t3.5 8.5v96q0 5 -3.5 8.5t-8.5 3.5h-136q-5 0 -8.5 -3.5t-3.5 -8.5v-96q0 -5 3.5 -8.5t8.5 -3.5zM200 248h80v-40h-80v40zM160 108v24q0 5 3.5 8.5t8.5 3.5h136q5 0 8.5 -3.5t3.5 -8.5v-24q0 -5 -3.5 -8.5t-8.5 -3.5h-136q-5 0 -8.5 3.5t-3.5 8.5zM352 108v24
q0 5 3.5 8.5t8.5 3.5h104q5 0 8.5 -3.5t3.5 -8.5v-24q0 -5 -3.5 -8.5t-8.5 -3.5h-104q-5 0 -8.5 3.5t-3.5 8.5zM352 252v24q0 5 3.5 8.5t8.5 3.5h104q5 0 8.5 -3.5t3.5 -8.5v-24q0 -5 -3.5 -8.5t-8.5 -3.5h-104q-5 0 -8.5 3.5t-3.5 8.5zM352 180v24q0 5 3.5 8.5t8.5 3.5h104
q5 0 8.5 -3.5t3.5 -8.5v-24q0 -5 -3.5 -8.5t-8.5 -3.5h-104q-5 0 -8.5 3.5t-3.5 8.5z" />
    <glyph glyph-name="bell-slash" unicode="&#xf1f6;" horiz-adv-x="640" 
d="M634 -23l-598 467q-5 5 -11.5 4t-10.5 -6l-10 -12q-5 -6 -4 -12.5t6 -10.5l598 -467q5 -5 11.5 -4t10.5 6l10 12q5 6 4 12.5t-6 10.5zM164 80q32 43 41 111l-46 35q-2 -56 -19 -93q-11 -21 -32 -44l-3 -3q-9 -10 -9 -22.5t9 -22t23 -9.5h280l-62 48h-182zM320 352
q30 0 56 -15t41 -41t15 -56v-1q0 -22 3 -45l59 -47q-14 38 -14 93q0 58 -36 101t-92 54v21q0 13 -9.5 22.5t-22.5 9.5t-22.5 -9.5t-9.5 -22.5v-21q-38 -8 -69 -33l38 -29q29 19 63 19zM320 -64q26 0 45 18.5t19 45.5h-128q0 -27 19 -45.5t45 -18.5z" />
    <glyph glyph-name="copyright" unicode="&#xf1f9;" 
d="M256 440q-67 0 -124 -33.5t-90.5 -90.5t-33.5 -124t33.5 -124t90.5 -90.5t124 -33.5t124 33.5t90.5 90.5t33.5 124t-33.5 124t-90.5 90.5t-124 33.5zM256 -8q-54 0 -100 27t-73 73t-27 100t27 100t73 73t100 27t100 -27t73 -73t27 -100t-27 -100t-73 -73t-100 -27z
M363 93q-13 -14 -33 -24q-33 -17 -71 -17q-40 0 -72 18.5t-50 50.5t-18 71.5t18 71.5t50 50.5t72 18.5q35 0 66 -15q18 -8 31 -20q3 -3 3.5 -7.5t-1.5 -7.5l-18 -29q-3 -4 -8 -5t-10 3q-28 22 -61 22q-36 0 -57 -23t-21 -57t20 -57q22 -27 58 -27q21 0 42 11q13 7 24 16
q4 4 9 3.5t9 -4.5l20 -27q2 -4 1.5 -8.5t-3.5 -7.5z" />
    <glyph glyph-name="closed-captioning" unicode="&#xf20a;" 
d="M464 384h-416q-20 0 -34 -14t-14 -34v-288q0 -20 14 -34t34 -14h416q20 0 34 14t14 34v288q0 20 -14 34t-34 14zM458 48h-404q-2 0 -4 2t-2 4v276q0 2 2 4t4 2h404q2 0 4 -2t2 -4v-276q0 -2 -2 -4t-4 -2zM247 134q3 -4 -1 -8q-19 -21 -48.5 -27.5t-58 2.5t-46.5 32
q-19 25 -19 61q0 46 33 72q30 24 72 23.5t67 -25.5q3 -3 1 -6l-17 -30q-2 -3 -4.5 -3.5t-4.5 1.5q-20 16 -42.5 16.5t-37.5 -12.5t-15 -36t14.5 -37.5t36 -13.5t41.5 19q2 2 5 2t4 -3zM437 134q3 -4 0 -8q-20 -21 -49.5 -27.5t-58 2.5t-46.5 32q-19 25 -19 61q0 46 33 72
q30 24 72 23.5t68 -25.5q2 -3 0 -6l-17 -30q-1 -3 -4 -3.5t-5 1.5q-20 16 -42.5 16.5t-37.5 -12.5t-15 -36t14.5 -37.5t36.5 -13.5t42 19q2 2 4.5 2t4.5 -3z" />
    <glyph glyph-name="object-group" unicode="&#xf247;" 
d="M500 320q5 0 8.5 3.5t3.5 8.5v72q0 5 -3.5 8.5t-8.5 3.5h-72q-5 0 -8.5 -3.5t-3.5 -8.5v-12h-320v12q0 5 -3.5 8.5t-8.5 3.5h-72q-5 0 -8.5 -3.5t-3.5 -8.5v-72q0 -5 3.5 -8.5t8.5 -3.5h12v-256h-12q-5 0 -8.5 -3.5t-3.5 -8.5v-72q0 -5 3.5 -8.5t8.5 -3.5h72q5 0 8.5 3.5
t3.5 8.5v12h320v-12q0 -5 3.5 -8.5t8.5 -3.5h72q5 0 8.5 3.5t3.5 8.5v72q0 5 -3.5 8.5t-8.5 3.5h-12v256h12zM448 384h32v-32h-32v32zM32 384h32v-32h-32v32zM64 0h-32v32h32v-32zM480 0h-32v32h32v-32zM440 64h-12q-5 0 -8.5 -3.5t-3.5 -8.5v-12h-320v12q0 5 -3.5 8.5
t-8.5 3.5h-12v256h12q5 0 8.5 3.5t3.5 8.5v12h320v-12q0 -5 3.5 -8.5t8.5 -3.5h12v-256zM404 256h-84v52q0 5 -3.5 8.5t-8.5 3.5h-200q-5 0 -8.5 -3.5t-3.5 -8.5v-168q0 -5 3.5 -8.5t8.5 -3.5h84v-52q0 -5 3.5 -8.5t8.5 -3.5h200q5 0 8.5 3.5t3.5 8.5v168q0 5 -3.5 8.5
t-8.5 3.5zM136 280h144v-112h-144v112zM376 104h-144v24h76q5 0 8.5 3.5t3.5 8.5v76h56v-112z" />
    <glyph glyph-name="object-ungroup" unicode="&#xf248;" horiz-adv-x="576" 
d="M564 224q5 0 8.5 3.5t3.5 8.5v72q0 5 -3.5 8.5t-8.5 3.5h-72q-5 0 -8.5 -3.5t-3.5 -8.5v-12h-88v24h12q5 0 8.5 3.5t3.5 8.5v72q0 5 -3.5 8.5t-8.5 3.5h-72q-5 0 -8.5 -3.5t-3.5 -8.5v-12h-224v12q0 5 -3.5 8.5t-8.5 3.5h-72q-5 0 -8.5 -3.5t-3.5 -8.5v-72q0 -5 3.5 -8.5
t8.5 -3.5h12v-160h-12q-5 0 -8.5 -3.5t-3.5 -8.5v-72q0 -5 3.5 -8.5t8.5 -3.5h72q5 0 8.5 3.5t3.5 8.5v12h88v-24h-12q-5 0 -8.5 -3.5t-3.5 -8.5v-72q0 -5 3.5 -8.5t8.5 -3.5h72q5 0 8.5 3.5t3.5 8.5v12h224v-12q0 -5 3.5 -8.5t8.5 -3.5h72q5 0 8.5 3.5t3.5 8.5v72
q0 5 -3.5 8.5t-8.5 3.5h-12v160h12zM352 384h32v-32h-32v32zM352 128h32v-32h-32v32zM64 96h-32v32h32v-32zM64 352h-32v32h32v-32zM96 136v12q0 5 -3.5 8.5t-8.5 3.5h-12v160h12q5 0 8.5 3.5t3.5 8.5v12h224v-12q0 -5 3.5 -8.5t8.5 -3.5h12v-160h-12q-5 0 -8.5 -3.5
t-3.5 -8.5v-12h-224zM224 0h-32v32h32v-32zM504 64h-12q-5 0 -8.5 -3.5t-3.5 -8.5v-12h-224v12q0 5 -3.5 8.5t-8.5 3.5h-12v24h88v-12q0 -5 3.5 -8.5t8.5 -3.5h72q5 0 8.5 3.5t3.5 8.5v72q0 5 -3.5 8.5t-8.5 3.5h-12v88h88v-12q0 -5 3.5 -8.5t8.5 -3.5h12v-160zM544 0h-32
v32h32v-32zM544 256h-32v32h32v-32z" />
    <glyph glyph-name="sticky-note" unicode="&#xf249;" horiz-adv-x="448" 
d="M448 100v268q0 20 -14 34t-34 14h-352q-20 0 -34 -14t-14 -34v-352q0 -20 14 -34t34 -14h268q20 0 34 14l84 84q14 14 14 34zM320 20v76h76zM400 368v-224h-104q-10 0 -17 -7t-7 -17v-104h-224v352h352z" />
    <glyph glyph-name="clone" unicode="&#xf24d;" 
d="M464 448h-320q-20 0 -34 -14t-14 -34v-48h-48q-20 0 -34 -14t-14 -34v-320q0 -20 14 -34t34 -14h320q20 0 34 14t14 34v48h48q20 0 34 14t14 34v320q0 20 -14 34t-34 14zM362 -16h-308q-2 0 -4 2t-2 4v308q0 2 2 4t4 2h42v-224q0 -20 14 -34t34 -14h224v-42q0 -2 -2 -4
t-4 -2zM458 80h-308q-2 0 -4 2t-2 4v308q0 2 2 4t4 2h308q2 0 4 -2t2 -4v-308q0 -2 -2 -4t-4 -2z" />
    <glyph glyph-name="hourglass" unicode="&#xf254;" horiz-adv-x="384" 
d="M368 400h4q5 0 8.5 3.5t3.5 8.5v24q0 5 -3.5 8.5t-8.5 3.5h-360q-5 0 -8.5 -3.5t-3.5 -8.5v-24q0 -5 3.5 -8.5t8.5 -3.5h4q0 -63 24 -118q26 -60 73 -90q-47 -30 -73 -90q-24 -55 -24 -118h-4q-5 0 -8.5 -3.5t-3.5 -8.5v-24q0 -5 3.5 -8.5t8.5 -3.5h360q5 0 8.5 3.5
t3.5 8.5v24q0 5 -3.5 8.5t-8.5 3.5h-4q0 63 -24 118q-26 60 -73 90q47 30 73 90q24 55 24 118zM64 400h256q0 -50 -17 -92t-46.5 -67t-64.5 -25t-64.5 25t-46.5 67t-17 92zM320 -16h-256q0 50 17 92t46.5 67t64.5 25t64.5 -25t46.5 -67t17 -92z" />
    <glyph glyph-name="hand-rock" unicode="&#xf255;" 
d="M409 369q-17 25 -45.5 31.5t-53.5 -7.5q-22 23 -54 23t-54 -23q-23 13 -49 8.5t-43.5 -23.5t-18.5 -46q-23 5 -44 -3t-34 -26.5t-13 -41.5v-57q0 -25 10.5 -47.5t28.5 -38.5l98 -85q2 -2 2.5 -5t0.5 -14v-14q0 -13 9.5 -22.5t22.5 -9.5h252q13 0 22.5 9.5t9.5 22.5v10v18
q1 8 4 14l43 100q9 21 9 45v114q0 26 -15.5 45.5t-39.5 26t-48 -3.5zM464 187q0 -14 -5 -26l-43 -100q-8 -18 -8 -38v-7h-220v10q0 26 -20 43l-97 85q-23 20 -23 50v57q0 15 13 21.5t26 0t13 -22.5v-41q0 -8 5 -12l7 -6q8 -7 17.5 -3t9.5 15v116q0 16 13 22t26 0t13 -23v-26
q0 -7 4.5 -11.5t11.5 -4.5h7q7 0 11.5 4.5t4.5 11.5v41q0 16 13 22t26 -0.5t13 -22.5v-40q0 -7 4.5 -11.5t11.5 -4.5h7q7 0 11.5 4.5t4.5 11.5v27q0 16 13 22t26 0t13 -23v-26q0 -7 4.5 -11.5t11.5 -4.5h7q7 0 11.5 4.5t4.5 11.5q0 15 13 21.5t26 0t13 -22.5v-114z" />
    <glyph glyph-name="hand-paper" unicode="&#xf256;" horiz-adv-x="448" 
d="M373 335v11q0 22 -12 39t-31.5 24.5t-39.5 2.5q-13 24 -36.5 32t-47 -1t-34.5 -32q-21 5 -40 -2.5t-31 -24.5t-12 -38v-126q-15 6 -31.5 3.5t-30.5 -12.5q-22 -16 -26 -43.5t12 -49.5l119 -169q10 -13 27 -13h222q12 0 20.5 7t11.5 18l30 131q5 22 5 45v132
q0 30 -23 50.5t-52 15.5zM400 137q0 -17 -4 -34l-27 -119h-202l-115 162q-7 9 -2.5 18.5t14.5 11.5t17 -8l27 -38q7 -9 18 -5.5t11 15.5v206q0 12 9 16.5t18.5 -0.5t9.5 -17v-153q0 -7 4.5 -11.5t11.5 -4.5h7q6 0 11 4.5t5 11.5v189q0 12 9 16.5t18 -0.5t9 -17v-188
q0 -7 5 -11.5t11 -4.5h7q7 0 11.5 4.5t4.5 11.5v155q0 12 9 16.5t18.5 -0.5t9.5 -17v-154q0 -7 4.5 -11.5t11.5 -4.5h6q7 0 11.5 4.5t4.5 11.5v76q0 13 9.5 17.5t18.5 0t9 -16.5v-132z" />
    <glyph glyph-name="hand-scissors" unicode="&#xf257;" 
d="M256 -32h70q8 0 15 2l119 27q23 5 37.5 23.5t14.5 41.5v205q0 18 -9 33.5t-25 24.5l-98 55q-25 14 -49 6.5t-43 -31.5l-145 56q-29 11 -57 -1t-39 -40t1 -56t41 -39l79 -19l-94 9q-31 0 -52.5 -21.5t-21.5 -51.5t21.5 -51.5t52.5 -21.5h88q-3 -20 5.5 -37.5t24.5 -27.5
q-7 -21 0.5 -41t24.5 -32.5t39 -12.5zM256 16q-12 0 -16.5 9t0 18.5t16.5 9.5q7 0 11.5 4.5t4.5 11.5v6q0 7 -4.5 11.5t-11.5 4.5h-28q-12 0 -16.5 9.5t0 18.5t16.5 9h28q7 0 11.5 4.5t4.5 11.5v7q0 6 -4.5 11t-11.5 5h-182q-16 0 -22.5 12.5t0 25t22.5 12.5h182q7 0 11.5 5
t4.5 11v12q0 11 -10 15l-156 59q-15 6 -16 20t9.5 23.5t26.5 3.5l166 -64q5 -2 10 -0.5t8 5.5l22 27q4 5 11 6.5t14 -2.5l98 -55q9 -5 9 -16v-205q0 -7 -4 -12t-11 -6l-119 -27l-4 -1h-70z" />
    <glyph glyph-name="hand-lizard" unicode="&#xf258;" horiz-adv-x="576" 
d="M557 157l-147 226q-10 16 -26 24.5t-34 8.5h-294q-23 0 -39.5 -16.5t-16.5 -39.5v-8q0 -33 23.5 -56.5t56.5 -23.5h196l-18 -48h-114q-36 0 -62 -26t-26 -62q0 -23 16.5 -39.5t39.5 -16.5h132q4 0 8 -2l100 -38v-72h224v124q0 36 -19 65zM528 16h-128v24q0 15 -8.5 27
t-22.5 17l-99 39q-13 5 -26 5h-132q-3 0 -5.5 2.5t-2.5 5.5q0 17 11.5 28.5t28.5 11.5h114q15 0 27 8.5t18 22.5l24 64q7 18 -4 33.5t-30 15.5h-213q-13 0 -22.5 9.5t-9.5 22.5v8q0 3 2.5 5.5t5.5 2.5h294q13 0 20 -11l146 -226q12 -18 12 -39v-76z" />
    <glyph glyph-name="hand-spock" unicode="&#xf259;" 
d="M21 66l129 -121q9 -9 22 -9h238q10 0 18.5 6.5t11.5 16.5l32 107q5 16 5 33v37q0 6 1 12l32 133q5 21 -2.5 40.5t-24.5 31t-38 11.5q-4 19 -17 34t-33 20q-27 7 -51 -7.5t-30 -41.5l-17 -105l-22 132q-6 27 -29.5 41.5t-50.5 8.5q-22 -5 -36.5 -22t-15.5 -39
q-21 0 -37.5 -12t-24 -31t-2.5 -39l31 -136q-21 17 -47.5 15t-45 -21.5t-17.5 -47.5t21 -47zM53 128v0q6 6 13.5 6t13.5 -5l53 -50q8 -7 17.5 -3t9.5 15v69v4l-35 150q-2 11 6 18t18.5 4.5t13.5 -14.5l30 -134q1 -5 5.5 -8.5t10.5 -3.5h8q8 0 12.5 6t3.5 14l-42 181
q-3 11 5.5 18t18.5 4.5t13 -14.5l45 -197q2 -5 6 -8.5t10 -3.5h13q6 0 10 3.5t6 8.5l42 170q3 11 13.5 13.5t18.5 -4.5t5 -19l-38 -152q-2 -8 3 -14t12 -6h10q6 0 10 3.5t6 8.5l27 113q2 12 12.5 14.5t18.5 -4.5t5 -18l-31 -134q-3 -11 -3 -23v-37q0 -10 -3 -19l-28 -96
h-220l-124 117q-6 6 -6 13.5t5 13.5z" />
    <glyph glyph-name="hand-pointer" unicode="&#xf25a;" horiz-adv-x="448" 
d="M358 269q-14 18 -36.5 23t-43.5 -4q-11 11 -26 16.5t-30 2.5v74q0 28 -19.5 47.5t-47 19.5t-47 -19.5t-19.5 -47.5v-161q-15 6 -31.5 3.5t-30.5 -12.5q-22 -16 -26 -43.5t12 -49.5l109 -154q10 -13 24 -20.5t30 -7.5h178q23 0 41.5 14.5t23.5 37.5l27 119q2 7 2 15v84
q0 23 -13.5 40.5t-34.5 24t-42 -1.5zM81 168l27 -38q7 -9 18 -5.5t11 15.5v241q0 12 9 16.5t18.5 0t9.5 -16.5v-175q0 -7 4.5 -11.5t11.5 -4.5h7q6 0 11 4.5t5 11.5v35q0 12 9 16.5t18 0t9 -16.5v-35q0 -7 5 -11.5t11 -4.5h7q7 0 11.5 4.5t4.5 11.5v21q0 12 9 16.5t18.5 0
t9.5 -16.5v-21q0 -7 4.5 -11.5t11.5 -4.5h6q7 0 11.5 4.5t4.5 11.5q0 12 9.5 16.5t18.5 0t9 -16.5v-84l-1 -4l-27 -119q-1 -7 -6 -11t-12 -4h-178q-9 0 -15 8l-109 154q-7 9 -2.5 18.5t14.5 11.5t17 -8zM176 48v96q0 7 4 11.5t10 4.5h6q6 0 10 -4.5t4 -11.5v-96
q0 -7 -4 -11.5t-10 -4.5h-6q-6 0 -10 4.5t-4 11.5zM252 48v96q0 7 4 11.5t10 4.5h6q5 0 9.5 -4.5t4.5 -11.5v-96q0 -7 -4.5 -11.5t-9.5 -4.5h-6q-6 0 -10 4.5t-4 11.5zM327 48v96q0 7 4 11.5t10 4.5h6q6 0 10 -4.5t4 -11.5v-96q0 -7 -4 -11.5t-10 -4.5h-6q-6 0 -10 4.5
t-4 11.5z" />
    <glyph glyph-name="hand-peace" unicode="&#xf25b;" horiz-adv-x="448" 
d="M362 256q-10 16 -27.5 24.5t-37.5 5.5v88q0 31 -21.5 52.5t-51.5 21.5t-51.5 -21.5t-21.5 -52.5l9 -94l-19 79q-11 29 -39 41t-56 1t-40 -39t-1 -57l56 -145q-24 -19 -31.5 -43t6.5 -49l55 -98q9 -16 24.5 -25t33.5 -9h205q23 0 41.5 14.5t23.5 37.5l27 119q2 7 2 15v70
q0 22 -12.5 39t-32.5 24.5t-41 0.5zM400 122q0 -2 -1 -4l-27 -119q-1 -7 -6 -11t-12 -4h-205q-11 0 -16 9l-55 98q-4 7 -2.5 14t6.5 11l27 22q4 3 5.5 8t-0.5 10l-64 166q-6 16 3.5 26.5t23.5 9.5t20 -16l59 -156q4 -10 15 -10h12q6 0 11 4.5t5 11.5v182q0 16 12.5 22.5
t25 0t12.5 -22.5v-182q0 -7 5 -11.5t11 -4.5h7q7 0 11.5 4.5t4.5 11.5v28q0 12 9 16.5t18.5 0t9.5 -16.5v-28q0 -7 4.5 -11.5t11.5 -4.5h6q7 0 11.5 4.5t4.5 11.5q0 12 9.5 16.5t18.5 0t9 -16.5v-70z" />
    <glyph glyph-name="registered" unicode="&#xf25d;" 
d="M256 440q-67 0 -124 -33.5t-90.5 -90.5t-33.5 -124t33.5 -124t90.5 -90.5t124 -33.5t124 33.5t90.5 90.5t33.5 124t-33.5 124t-90.5 90.5t-124 33.5zM256 -8q-54 0 -100 27t-73 73t-27 100t27 100t73 73t100 27t100 -27t73 -73t27 -100t-27 -100t-73 -73t-100 -27z
M366 74q-12 22 -28 52l-25 44q18 10 29 29.5t11 43.5q0 41 -25 63t-77 22h-79q-4 0 -8 -3.5t-4 -8.5v-248q0 -5 4 -8.5t8 -3.5h39q5 0 8.5 3.5t3.5 8.5v84h32l48 -90q3 -6 10 -6h43q7 0 10.5 6t-0.5 12zM257 208h-34v64h27q23 0 31 -7.5t8 -23.5t-8 -24.5t-24 -8.5z" />
    <glyph glyph-name="calendar-plus" unicode="&#xf271;" horiz-adv-x="448" 
d="M336 156v-24q0 -5 -3.5 -8.5t-8.5 -3.5h-76v-76q0 -5 -3.5 -8.5t-8.5 -3.5h-24q-5 0 -8.5 3.5t-3.5 8.5v76h-76q-5 0 -8.5 3.5t-3.5 8.5v24q0 5 3.5 8.5t8.5 3.5h76v76q0 5 3.5 8.5t8.5 3.5h24q5 0 8.5 -3.5t3.5 -8.5v-76h76q5 0 8.5 -3.5t3.5 -8.5zM448 336v-352
q0 -20 -14 -34t-34 -14h-352q-20 0 -34 14t-14 34v352q0 20 14 34t34 14h48v52q0 5 3.5 8.5t8.5 3.5h40q5 0 8.5 -3.5t3.5 -8.5v-52h128v52q0 5 3.5 8.5t8.5 3.5h40q5 0 8.5 -3.5t3.5 -8.5v-52h48q20 0 34 -14t14 -34zM400 -10v298h-352v-298q0 -2 2 -4t4 -2h340q2 0 4 2
t2 4z" />
    <glyph glyph-name="calendar-minus" unicode="&#xf272;" horiz-adv-x="448" 
d="M124 120q-5 0 -8.5 3.5t-3.5 8.5v24q0 5 3.5 8.5t8.5 3.5h200q5 0 8.5 -3.5t3.5 -8.5v-24q0 -5 -3.5 -8.5t-8.5 -3.5h-200zM448 336v-352q0 -20 -14 -34t-34 -14h-352q-20 0 -34 14t-14 34v352q0 20 14 34t34 14h48v52q0 5 3.5 8.5t8.5 3.5h40q5 0 8.5 -3.5t3.5 -8.5v-52
h128v52q0 5 3.5 8.5t8.5 3.5h40q5 0 8.5 -3.5t3.5 -8.5v-52h48q20 0 34 -14t14 -34zM400 -10v298h-352v-298q0 -2 2 -4t4 -2h340q2 0 4 2t2 4z" />
    <glyph glyph-name="calendar-times" unicode="&#xf273;" horiz-adv-x="448" 
d="M312 73l-17 -17q-4 -3 -9 -3t-8 3l-54 54l-54 -54q-3 -3 -8 -3t-9 3l-17 17q-3 4 -3 9t3 8l54 54l-54 54q-3 3 -3 8t3 9l17 17q4 3 9 3t8 -3l54 -54l54 54q3 3 8 3t9 -3l17 -17q3 -4 3 -9t-3 -8l-54 -54l54 -54q3 -3 3 -8t-3 -9zM448 336v-352q0 -20 -14 -34t-34 -14
h-352q-20 0 -34 14t-14 34v352q0 20 14 34t34 14h48v52q0 5 3.5 8.5t8.5 3.5h40q5 0 8.5 -3.5t3.5 -8.5v-52h128v52q0 5 3.5 8.5t8.5 3.5h40q5 0 8.5 -3.5t3.5 -8.5v-52h48q20 0 34 -14t14 -34zM400 -10v298h-352v-298q0 -2 2 -4t4 -2h340q2 0 4 2t2 4z" />
    <glyph glyph-name="calendar-check" unicode="&#xf274;" horiz-adv-x="448" 
d="M400 384h-48v52q0 5 -3.5 8.5t-8.5 3.5h-40q-5 0 -8.5 -3.5t-3.5 -8.5v-52h-128v52q0 5 -3.5 8.5t-8.5 3.5h-40q-5 0 -8.5 -3.5t-3.5 -8.5v-52h-48q-20 0 -34 -14t-14 -34v-352q0 -20 14 -34t34 -14h352q20 0 34 14t14 34v352q0 20 -14 34t-34 14zM394 -16h-340
q-2 0 -4 2t-2 4v298h352v-298q0 -2 -2 -4t-4 -2zM341 185l-142 -142q-4 -3 -9 -3t-8 4l-75 75q-4 4 -4 9t4 8l23 23q3 3 8 3t9 -3l44 -45l111 110q3 4 8 4t9 -4l22 -22q4 -4 4 -9t-4 -8z" />
    <glyph glyph-name="map" unicode="&#xf279;" horiz-adv-x="576" 
d="M560 416q-3 0 -6 -1l-170 -63l-172 61q-10 3 -20 3t-20 -3l-152 -53q-9 -4 -14.5 -12t-5.5 -18v-346q0 -7 5 -11.5t11 -4.5q3 0 6 1l170 63l172 -61q20 -6 40 0l152 53q9 4 14.5 12t5.5 18v346q0 7 -5 11.5t-11 4.5zM224 358l128 -46v-286l-128 46v286zM48 30v289l128 44
v-286zM528 65l-128 -44v286l128 47v-289z" />
    <glyph glyph-name="comment-alt" unicode="&#xf27a;" 
d="M448 448h-384q-26 0 -45 -19t-19 -45v-288q0 -26 19 -45t45 -19h96v-84q0 -5 3.5 -8.5t8 -3.5t7.5 2l125 94h144q26 0 45 19t19 45v288q0 26 -19 45t-45 19zM464 96q0 -7 -4.5 -11.5t-11.5 -4.5h-160l-80 -60v60h-144q-7 0 -11.5 4.5t-4.5 11.5v288q0 7 4.5 11.5
t11.5 4.5h384q7 0 11.5 -4.5t4.5 -11.5v-288z" />
    <glyph glyph-name="pause-circle" unicode="&#xf28b;" 
d="M256 440q-67 0 -124 -33.5t-90.5 -90.5t-33.5 -124t33.5 -124t90.5 -90.5t124 -33.5t124 33.5t90.5 90.5t33.5 124t-33.5 124t-90.5 90.5t-124 33.5zM256 -8q-54 0 -100 27t-73 73t-27 100t27 100t73 73t100 27t100 -27t73 -73t27 -100t-27 -100t-73 -73t-100 -27z
M352 272v-160q0 -7 -4.5 -11.5t-11.5 -4.5h-48q-7 0 -11.5 4.5t-4.5 11.5v160q0 7 4.5 11.5t11.5 4.5h48q7 0 11.5 -4.5t4.5 -11.5zM240 272v-160q0 -7 -4.5 -11.5t-11.5 -4.5h-48q-7 0 -11.5 4.5t-4.5 11.5v160q0 7 4.5 11.5t11.5 4.5h48q7 0 11.5 -4.5t4.5 -11.5z" />
    <glyph glyph-name="stop-circle" unicode="&#xf28d;" 
d="M504 192q0 67 -33.5 124t-90.5 90.5t-124 33.5t-124 -33.5t-90.5 -90.5t-33.5 -124t33.5 -124t90.5 -90.5t124 -33.5t124 33.5t90.5 90.5t33.5 124zM56 192q0 54 27 100t73 73t100 27t100 -27t73 -73t27 -100t-27 -100t-73 -73t-100 -27t-100 27t-73 73t-27 100zM352 272
v-160q0 -7 -4.5 -11.5t-11.5 -4.5h-160q-7 0 -11.5 4.5t-4.5 11.5v160q0 7 4.5 11.5t11.5 4.5h160q7 0 11.5 -4.5t4.5 -11.5z" />
    <glyph glyph-name="handshake" unicode="&#xf2b5;" horiz-adv-x="640" 
d="M519 320l-47 48q-17 16 -40 16h-227q-23 0 -39 -16l-48 -48h-118v-256h64q13 0 22.5 9.5t9.5 22.5h9l85 -76q23 -19 52 -20t53 16q19 -16 41 -16q30 0 49 24q17 -7 34.5 -2.5t29.5 19.5l26 32q8 10 11 23h58q0 -13 9.5 -22.5t22.5 -9.5h64v256h-121zM48 96q-7 0 -11.5 5
t-4.5 11.5t4.5 11t11.5 4.5t11.5 -4.5t4.5 -11t-4.5 -11.5t-11.5 -5zM438 103l-26 -32q-2 -2 -5.5 -2.5t-5.5 1.5l-24 19l-30 -36q-4 -5 -9.5 -5t-8.5 2l-37 32l-16 -19q-10 -13 -26.5 -15t-28.5 8l-97 88h-28v128h42l62 62l5 2h57l-39 -35q-22 -21 -23 -50.5t19 -51.5
q9 -9 24 -16q18 -8 36 -7q23 2 41 19l9 7l108 -87q2 -2 2.5 -5.5t-1.5 -6.5zM544 144h-69l-8 8l-103 83l13 12q5 4 5 10.5t-4 11.5l-11 12q-4 5 -11 5t-12 -4l-55 -51q-7 -6 -17.5 -6.5t-17 7t-6.5 17.5t8 16l65 60q12 11 27 11h84q3 0 6 -2l61 -62h45v-128zM592 96
q-7 0 -11.5 5t-4.5 11.5t4.5 11t11.5 4.5t11.5 -4.5t4.5 -11t-4.5 -11.5t-11.5 -5z" />
    <glyph glyph-name="envelope-open" unicode="&#xf2b6;" 
d="M495 283q-36 30 -136 109l-10 9q-25 21 -41 31q-28 16 -52 16t-52 -16q-15 -10 -41 -31l-10 -9q-95 -75 -135 -108q-18 -15 -18 -37v-263q0 -20 14 -34t34 -14h416q20 0 34 14t14 34v262q0 23 -17 37zM464 -10q0 -2 -2 -4t-4 -2h-404q-2 0 -4 2t-2 4v254q0 3 2 4l143 115
q20 17 31 24q19 13 32 13t32 -13q11 -7 31 -24l10 -8q52 -41 133 -107q2 -2 2 -4v-254zM432 178q3 -4 2.5 -9t-4.5 -8l-81 -66q-26 -21 -41 -31q-28 -16 -52 -16t-52 16q-16 10 -41 31l-81 66q-4 3 -4.5 8t2.5 9l15 18q3 4 8 4.5t9 -2.5l81 -65q20 -17 31 -24q19 -13 32 -13
t32 13q11 7 31 24l81 65q4 3 9 2.5t8 -4.5z" />
    <glyph glyph-name="address-book" unicode="&#xf2b9;" horiz-adv-x="448" 
d="M436 288q5 0 8.5 3.5t3.5 8.5v40q0 5 -3.5 8.5t-8.5 3.5h-20v48q0 20 -14 34t-34 14h-320q-20 0 -34 -14t-14 -34v-416q0 -20 14 -34t34 -14h320q20 0 34 14t14 34v48h20q5 0 8.5 3.5t3.5 8.5v40q0 5 -3.5 8.5t-8.5 3.5h-20v64h20q5 0 8.5 3.5t3.5 8.5v40q0 5 -3.5 8.5
t-8.5 3.5h-20v64h20zM368 -16h-320v416h320v-416zM208 192q26 0 45 19t19 45t-19 45t-45 19t-45 -19t-19 -45t19 -45t45 -19zM118 64h180q9 0 15.5 5.5t6.5 13.5v19q0 24 -19.5 41t-47.5 17q-4 0 -13 -3q-16 -5 -32 -5t-32 5q-8 3 -13 3q-28 0 -47.5 -17t-19.5 -41v-19
q0 -8 6.5 -13.5t15.5 -5.5z" />
    <glyph glyph-name="address-card" unicode="&#xf2bb;" horiz-adv-x="576" 
d="M528 416h-480q-20 0 -34 -14t-14 -34v-352q0 -20 14 -34t34 -14h480q20 0 34 14t14 34v352q0 20 -14 34t-34 14zM528 16h-480v352h480v-352zM208 192q26 0 45 19t19 45t-19 45t-45 19t-45 -19t-19 -45t19 -45t45 -19zM118 64h180q9 0 15.5 5.5t6.5 13.5v19q0 24 -19.5 41
t-47.5 17q-4 0 -13 -3q-16 -5 -32 -5t-32 5q-8 3 -13 3q-28 0 -47.5 -17t-19.5 -41v-19q0 -8 6.5 -13.5t15.5 -5.5zM360 128h112q3 0 5.5 2.5t2.5 5.5v16q0 3 -2.5 5.5t-5.5 2.5h-112q-3 0 -5.5 -2.5t-2.5 -5.5v-16q0 -3 2.5 -5.5t5.5 -2.5zM360 192h112q3 0 5.5 2.5
t2.5 5.5v16q0 3 -2.5 5.5t-5.5 2.5h-112q-3 0 -5.5 -2.5t-2.5 -5.5v-16q0 -3 2.5 -5.5t5.5 -2.5zM360 256h112q3 0 5.5 2.5t2.5 5.5v16q0 3 -2.5 5.5t-5.5 2.5h-112q-3 0 -5.5 -2.5t-2.5 -5.5v-16q0 -3 2.5 -5.5t5.5 -2.5z" />
    <glyph glyph-name="user-circle" unicode="&#xf2bd;" horiz-adv-x="496" 
d="M248 344q-40 0 -68 -28t-28 -68t28 -68t68 -28t68 28t28 68t-28 68t-68 28zM248 200q-20 0 -34 14t-14 34t14 34t34 14t34 -14t14 -34t-14 -34t-34 -14zM248 440q-67 0 -124 -33.5t-90.5 -90.5t-33.5 -124t33.5 -124t90.5 -90.5t124 -33.5t124 33.5t90.5 90.5t33.5 124
t-33.5 124t-90.5 90.5t-124 33.5zM248 -8q-37 0 -70 12.5t-60 35.5q11 18 29.5 28.5t40.5 11.5q31 -10 60.5 -10t60.5 10q21 -1 39.5 -11.5t29.5 -28.5q-27 -23 -60 -35.5t-70 -12.5zM411 76q-19 24 -46.5 38t-58.5 14q-4 0 -14 -3q-24 -7 -44 -7t-44 7q-10 3 -14 3
q-31 0 -58.5 -14t-46.5 -38q-37 52 -37 116q0 54 27 100t73 73t100 27t100 -27t73 -73t27 -100q0 -64 -37 -116z" />
    <glyph glyph-name="id-badge" unicode="&#xf2c1;" horiz-adv-x="384" 
d="M336 448h-288q-20 0 -34 -14t-14 -34v-416q0 -20 14 -34t34 -14h288q20 0 34 14t14 34v416q0 20 -14 34t-34 14zM336 -16h-288v416h288v-416zM144 336h96q7 0 11.5 4.5t4.5 11.5t-4.5 11.5t-11.5 4.5h-96q-7 0 -11.5 -4.5t-4.5 -11.5t4.5 -11.5t11.5 -4.5zM192 160
q26 0 45 19t19 45t-19 45t-45 19t-45 -19t-19 -45t19 -45t45 -19zM102 32h180q9 0 15.5 5.5t6.5 13.5v19q0 24 -19.5 41t-47.5 17q-4 0 -13 -3q-16 -5 -32 -5t-32 5q-8 3 -13 3q-28 0 -47.5 -17t-19.5 -41v-19q0 -8 6.5 -13.5t15.5 -5.5z" />
    <glyph glyph-name="id-card" unicode="&#xf2c2;" horiz-adv-x="576" 
d="M528 416h-480q-20 0 -34 -14t-14 -34v-352q0 -20 14 -34t34 -14h480q20 0 34 14t14 34v352q0 20 -14 34t-34 14zM528 16h-225l1 2v13v7q0 24 -19.5 41t-47.5 17q-4 0 -13 -3q-16 -5 -32 -5t-32 5q-8 3 -13 3q-28 0 -47.5 -17t-19.5 -41v-20l1 -2h-33v288h480v-288z
M360 96h112q3 0 5.5 2.5t2.5 5.5v16q0 3 -2.5 5.5t-5.5 2.5h-112q-3 0 -5.5 -2.5t-2.5 -5.5v-16q0 -3 2.5 -5.5t5.5 -2.5zM360 160h112q3 0 5.5 2.5t2.5 5.5v16q0 3 -2.5 5.5t-5.5 2.5h-112q-3 0 -5.5 -2.5t-2.5 -5.5v-16q0 -3 2.5 -5.5t5.5 -2.5zM360 224h112q3 0 5.5 2.5
t2.5 5.5v16q0 3 -2.5 5.5t-5.5 2.5h-112q-3 0 -5.5 -2.5t-2.5 -5.5v-16q0 -3 2.5 -5.5t5.5 -2.5zM192 128q26 0 45 19t19 45t-19 45t-45 19t-45 -19t-19 -45t19 -45t45 -19z" />
    <glyph glyph-name="window-maximize" unicode="&#xf2d0;" 
d="M464 416h-416q-20 0 -34 -14t-14 -34v-352q0 -20 14 -34t34 -14h416q20 0 34 14t14 34v352q0 20 -14 34t-34 14zM464 22q0 -2 -2 -4t-4 -2h-404q-2 0 -4 2t-2 4v234h416v-234z" />
    <glyph glyph-name="window-minimize" unicode="&#xf2d1;" 
d="M480 -32h-448q-13 0 -22.5 9.5t-9.5 22.5t9.5 22.5t22.5 9.5h448q13 0 22.5 -9.5t9.5 -22.5t-9.5 -22.5t-22.5 -9.5z" />
    <glyph glyph-name="window-restore" unicode="&#xf2d2;" 
d="M464 448h-320q-20 0 -34 -14t-14 -34v-48h-48q-20 0 -34 -14t-14 -34v-320q0 -20 14 -34t34 -14h320q20 0 34 14t14 34v48h48q20 0 34 14t14 34v320q0 20 -14 34t-34 14zM368 -16h-320v208h320v-208zM464 80h-48v224q0 20 -14 34t-34 14h-224v48h320v-320z" />
    <glyph glyph-name="snowflake" unicode="&#xf2dc;" horiz-adv-x="448" 
d="M438 92l-66 39l59 10q9 2 13.5 9.5t3 15.5t-8.5 12.5t-16 2.5l-85 -31l-82 42l82 42l85 -31q9 -2 16 2.5t8.5 13t-3.5 15.5t-13 9l-59 10l66 39q7 4 9 12.5t-2 15.5t-12 9.5t-16 -1.5l-66 -38l21 56q2 8 -2 16t-12 10.5t-15 -1t-10 -11.5l-16 -90l-72 -42v84l69 59
q6 6 5.5 14t-7 13.5t-15 5.5t-14.5 -7l-38 -46v77q0 8 -6 14t-15 6t-15 -6t-6 -14v-77l-38 46q-6 7 -14.5 7t-15 -5.5t-7 -13.5t5.5 -14l69 -59v-84l-72 42l-16 90q-3 8 -10 11.5t-15 1t-12 -10.5t-2 -16l21 -56l-66 38q-8 4 -16 1.5t-12 -9.5t-2 -15.5t9 -12.5l66 -39
l-59 -10q-8 -2 -13 -9t-3.5 -15.5t8.5 -13t16 -2.5l85 31l82 -42l-82 -42l-85 31q-9 2 -16 -2.5t-8.5 -13t3.5 -15.5t13 -9l59 -10l-66 -39q-7 -4 -9 -12.5t2 -15.5t12 -9.5t16 1.5l66 38l-21 -56q-2 -9 2 -16.5t12 -10t15 1t10 11.5l16 90l72 42v-84l-69 -59
q-6 -6 -5.5 -14t7 -13.5t15 -5.5t14.5 7l38 46v-77q0 -8 6 -14t15 -6t15 6t6 14v77l38 -46q7 -7 15.5 -7t14.5 5.5t6.5 13.5t-5.5 14l-69 59v84l72 -42l16 -90q3 -8 10 -11.5t15 -1t12 10.5t2 16l-21 56l66 -38q8 -4 16 -1.5t12 9.5t2 15.5t-9 12.5z" />
    <glyph glyph-name="trash-alt" unicode="&#xf2ed;" horiz-adv-x="448" 
d="M192 260v-216q0 -5 -3.5 -8.5t-8.5 -3.5h-24q-5 0 -8.5 3.5t-3.5 8.5v216q0 5 3.5 8.5t8.5 3.5h24q5 0 8.5 -3.5t3.5 -8.5zM292 272h-24q-5 0 -8.5 -3.5t-3.5 -8.5v-216q0 -5 3.5 -8.5t8.5 -3.5h24q5 0 8.5 3.5t3.5 8.5v216q0 5 -3.5 8.5t-8.5 3.5zM424 368q10 0 17 -7
t7 -17v-12q0 -5 -3.5 -8.5t-8.5 -3.5h-20v-336q0 -20 -14 -34t-34 -14h-288q-20 0 -34 14t-14 34v336h-20q-5 0 -8.5 3.5t-3.5 8.5v12q0 10 7 17t17 7h74l34 57q7 11 18 17t24 6h100q13 0 24 -6t18 -17l34 -57h74zM154 368h140l-18 29q-2 3 -5 3h-94q-3 0 -5 -3zM368 320
h-288v-330q0 -2 2 -4t4 -2h276q2 0 4 2t2 4v330z" />
    <glyph glyph-name="images" unicode="&#xf302;" horiz-adv-x="576" 
d="M480 32v-16q0 -20 -14 -34t-34 -14h-384q-20 0 -34 14t-14 34v256q0 20 14 34t34 14h16v-48h-10q-2 0 -4 -2t-2 -4v-244q0 -2 2 -4t4 -2h372q2 0 4 2t2 4v10h48zM522 368h-372q-2 0 -4 -2t-2 -4v-244q0 -2 2 -4t4 -2h372q2 0 4 2t2 4v244q0 2 -2 4t-4 2zM528 416
q20 0 34 -14t14 -34v-256q0 -20 -14 -34t-34 -14h-384q-20 0 -34 14t-14 34v256q0 20 14 34t34 14h384zM264 304q0 -17 -11.5 -28.5t-28.5 -11.5t-28.5 11.5t-11.5 28.5t11.5 28.5t28.5 11.5t28.5 -11.5t11.5 -28.5zM192 208l40 40q3 3 8 3t8 -3l40 -40l104 104q3 3 8 3
t8 -3l72 -72v-80h-288v48z" />
    <glyph glyph-name="clipboard" unicode="&#xf328;" horiz-adv-x="384" 
d="M336 384h-80q0 26 -19 45t-45 19t-45 -19t-19 -45h-80q-20 0 -34 -14t-14 -34v-352q0 -20 14 -34t34 -14h288q20 0 34 14t14 34v352q0 20 -14 34t-34 14zM330 -16h-276q-2 0 -4 2t-2 4v340q0 2 2 4t4 2h42v-36q0 -5 3.5 -8.5t8.5 -3.5h168q5 0 8.5 3.5t3.5 8.5v36h42
q2 0 4 -2t2 -4v-340q0 -2 -2 -4t-4 -2zM192 408q10 0 17 -7t7 -17t-7 -17t-17 -7t-17 7t-7 17t7 17t17 7z" />
    <glyph glyph-name="arrow-alt-circle-down" unicode="&#xf358;" 
d="M256 440q-67 0 -124 -33.5t-90.5 -90.5t-33.5 -124t33.5 -124t90.5 -90.5t124 -33.5t124 33.5t90.5 90.5t33.5 124t-33.5 124t-90.5 90.5t-124 33.5zM256 -8q-54 0 -100 27t-73 73t-27 100t27 100t73 73t100 27t100 -27t73 -73t27 -100t-27 -100t-73 -73t-100 -27z
M224 308v-116h-67q-8 0 -11 -7.5t3 -12.5l99 -99q3 -4 8 -4t9 4l99 99q5 5 2 12.5t-11 7.5h-67v116q0 5 -3.5 8.5t-8.5 3.5h-40q-5 0 -8.5 -3.5t-3.5 -8.5z" />
    <glyph glyph-name="arrow-alt-circle-left" unicode="&#xf359;" 
d="M8 192q0 -67 33.5 -124t90.5 -90.5t124 -33.5t124 33.5t90.5 90.5t33.5 124t-33.5 124t-90.5 90.5t-124 33.5t-124 -33.5t-90.5 -90.5t-33.5 -124zM456 192q0 -54 -27 -100t-73 -73t-100 -27t-100 27t-73 73t-27 100t27 100t73 73t100 27t100 -27t73 -73t27 -100z
M384 212v-40q0 -5 -3.5 -8.5t-8.5 -3.5h-116v-67q0 -8 -7.5 -11t-12.5 3l-99 99q-4 3 -4 8t4 9l99 99q5 5 12.5 2t7.5 -11v-67h116q5 0 8.5 -3.5t3.5 -8.5z" />
    <glyph glyph-name="arrow-alt-circle-right" unicode="&#xf35a;" 
d="M504 192q0 67 -33.5 124t-90.5 90.5t-124 33.5t-124 -33.5t-90.5 -90.5t-33.5 -124t33.5 -124t90.5 -90.5t124 -33.5t124 33.5t90.5 90.5t33.5 124zM56 192q0 54 27 100t73 73t100 27t100 -27t73 -73t27 -100t-27 -100t-73 -73t-100 -27t-100 27t-73 73t-27 100zM128 172
v40q0 5 3.5 8.5t8.5 3.5h116v67q0 8 7.5 11t12.5 -2l100 -99q3 -4 3 -9t-3 -9l-99 -98q-6 -6 -13.5 -3t-7.5 11v67h-116q-5 0 -8.5 3.5t-3.5 8.5z" />
    <glyph glyph-name="arrow-alt-circle-up" unicode="&#xf35b;" 
d="M256 -56q67 0 124 33.5t90.5 90.5t33.5 124t-33.5 124t-90.5 90.5t-124 33.5t-124 -33.5t-90.5 -90.5t-33.5 -124t33.5 -124t90.5 -90.5t124 -33.5zM256 392q54 0 100 -27t73 -73t27 -100t-27 -100t-73 -73t-100 -27t-100 27t-73 73t-27 100t27 100t73 73t100 27zM276 64
h-40q-5 0 -8.5 3.5t-3.5 8.5v116h-67q-8 0 -11 7.5t3 12.5l99 100q3 3 8 3t9 -3l99 -99q5 -6 2 -13.5t-11 -7.5h-67v-116q0 -5 -3.5 -8.5t-8.5 -3.5z" />
    <glyph glyph-name="gem" unicode="&#xf3a5;" horiz-adv-x="576" 
d="M464 448h-352q-7 0 -10 -5l-100 -148q-5 -7 1 -14l276 -341q3 -4 9 -4t9 4l276 341q6 7 1 14l-100 148q-4 5 -10 5zM445 400l63 -96h-68l-52 96h57zM243 400h90l52 -96h-194zM131 400h57l-52 -96h-68zM88 256h52l68 -160zM191 256h194l-97 -243zM368 96l68 160h52z" />
    <glyph glyph-name="money-bill-alt" unicode="&#xf3d1;" horiz-adv-x="640" 
d="M320 304q-26 0 -48 -15t-35 -41t-13 -56t13 -56t35 -41t48 -15t48 15t35 41t13 56t-13 56t-35 41t-48 15zM360 136q0 -3 -2.5 -5.5t-5.5 -2.5h-64q-3 0 -5.5 2.5t-2.5 5.5v16q0 3 2.5 5.5t5.5 2.5h16v55v0q-3 -2 -6.5 -1t-5.5 3l-8 14q-2 2 -1.5 5.5t3.5 5.5l15 10
q6 4 13 4h14q3 0 5.5 -2.5t2.5 -5.5v-88h16q3 0 5.5 -2.5t2.5 -5.5v-16zM608 384h-576q-13 0 -22.5 -9.5t-9.5 -22.5v-320q0 -13 9.5 -22.5t22.5 -9.5h576q13 0 22.5 9.5t9.5 22.5v320q0 13 -9.5 22.5t-22.5 9.5zM592 112q-27 0 -45.5 -18.5t-18.5 -45.5h-416
q0 27 -18.5 45.5t-45.5 18.5v160q27 0 45.5 18.5t18.5 45.5h416q0 -27 18.5 -45.5t45.5 -18.5v-160z" />
    <glyph glyph-name="window-close" unicode="&#xf410;" 
d="M464 416h-416q-20 0 -34 -14t-14 -34v-352q0 -20 14 -34t34 -14h416q20 0 34 14t14 34v352q0 20 -14 34t-34 14zM464 22q0 -2 -2 -4t-4 -2h-404q-2 0 -4 2t-2 4v340q0 2 2 4t4 2h404q2 0 4 -2t2 -4v-340zM357 253l-62 -61l62 -61q3 -4 3 -9t-4 -8l-22 -22q-3 -4 -8 -4
t-9 3l-61 62l-61 -61q-4 -4 -9 -4t-8 3l-22 23q-4 3 -4 8t3 9l62 61l-61 61q-4 4 -4 9t3 8l23 23q3 3 8 3t9 -3l61 -62l61 62q4 3 9 3t8 -3l23 -23q3 -3 3 -8t-3 -9z" />
    <glyph glyph-name="comment-dots" unicode="&#xf4ad;" 
d="M144 240q-13 0 -22.5 -9.5t-9.5 -22.5t9.5 -22.5t22.5 -9.5t22.5 9.5t9.5 22.5t-9.5 22.5t-22.5 9.5zM256 240q-13 0 -22.5 -9.5t-9.5 -22.5t9.5 -22.5t22.5 -9.5t22.5 9.5t9.5 22.5t-9.5 22.5t-22.5 9.5zM368 240q-13 0 -22.5 -9.5t-9.5 -22.5t9.5 -22.5t22.5 -9.5
t22.5 9.5t9.5 22.5t-9.5 22.5t-22.5 9.5zM256 416q-70 0 -128.5 -28t-93 -75.5t-34.5 -104.5q0 -70 53 -126q-9 -25 -29 -52q-13 -18 -17.5 -22.5t-6 -11.5t1.5 -13.5t9 -10.5t13 -4q74 0 139 46q46 -14 93 -14q70 0 128.5 28t93 75.5t34.5 104.5t-34.5 104.5t-93 75.5
t-128.5 28zM256 48q-40 0 -78 12l-23 7l-20 -13q-27 -20 -57 -30q12 21 20 41l10 28l-20 22q-40 42 -40 93q0 43 28 80t76 58.5t104 21.5t104 -21.5t76 -58.5t28 -80t-28 -80t-76 -58.5t-104 -21.5z" />
    <glyph glyph-name="smile-wink" unicode="&#xf4da;" horiz-adv-x="496" 
d="M248 440q-67 0 -124 -33.5t-90.5 -90.5t-33.5 -124t33.5 -124t90.5 -90.5t124 -33.5t124 33.5t90.5 90.5t33.5 124t-33.5 124t-90.5 90.5t-124 33.5zM248 -8q-54 0 -100 27t-73 73t-27 100t27 100t73 73t100 27t100 -27t73 -73t27 -100t-27 -100t-73 -73t-100 -27z
M366 138q-8 7 -18 6t-16 -9q-16 -18 -38 -28.5t-46 -10.5t-46 10.5t-38 28.5q-6 8 -16 9t-17.5 -5.5t-8.5 -16.5t5 -17q23 -27 54.5 -42t66.5 -15t66.5 15t54.5 42q6 7 5 17t-8 16zM168 208q13 0 22.5 9.5t9.5 22.5t-9.5 22.5t-22.5 9.5t-22.5 -9.5t-9.5 -22.5t9.5 -22.5
t22.5 -9.5zM328 268q-20 0 -38.5 -12t-21.5 -30q-1 -8 6.5 -12t13.5 1l9 9q12 10 31 9.5t30 -9.5l10 -9q6 -5 13.5 -1t6.5 12q-3 18 -21.5 30t-38.5 12z" />
    <glyph glyph-name="angry" unicode="&#xf556;" horiz-adv-x="496" 
d="M248 440q-67 0 -124 -33.5t-90.5 -90.5t-33.5 -124t33.5 -124t90.5 -90.5t124 -33.5t124 33.5t90.5 90.5t33.5 124t-33.5 124t-90.5 90.5t-124 33.5zM248 -8q-54 0 -100 27t-73 73t-27 100t27 100t73 73t100 27t100 -27t73 -73t27 -100t-27 -100t-73 -73t-100 -27z
M248 136q-25 0 -48 -10.5t-39 -30.5q-6 -7 -5 -17t8.5 -16.5t17.5 -5.5t16 9q12 14 31 19t38 0t31 -19q6 -8 16 -9t17.5 5.5t8.5 16.5t-5 17q-16 20 -39 30.5t-48 10.5zM200 208q8 0 14.5 4.5t9 13.5t-2.5 17.5t-14 11.5l-80 24q-10 3 -18.5 -2t-11.5 -14.5t2 -18t14 -11.5
l28 -8q-5 -9 -5 -17q0 -13 9.5 -22.5t22.5 -9.5t22.5 9.5t9.5 22.5zM399 263q-3 9 -11.5 14t-18.5 2l-80 -24q-9 -3 -14 -11.5t-2.5 -17.5t9 -13.5t14.5 -4.5q0 -13 9.5 -22.5t22.5 -9.5t22.5 9.5t9.5 22.5q0 8 -5 17l28 8q9 3 14 11.5t2 18.5z" />
    <glyph glyph-name="dizzy" unicode="&#xf567;" horiz-adv-x="496" 
d="M248 440q-67 0 -124 -33.5t-90.5 -90.5t-33.5 -124t33.5 -124t90.5 -90.5t124 -33.5t124 33.5t90.5 90.5t33.5 124t-33.5 124t-90.5 90.5t-124 33.5zM248 -8q-54 0 -100 27t-73 73t-27 100t27 100t73 73t100 27t100 -27t73 -73t27 -100t-27 -100t-73 -73t-100 -27z
M214 210q6 6 6 14t-6 14l-18 18l18 18q6 6 6 14t-6 14t-14 6t-14 -6l-18 -18l-18 18q-6 6 -14 6t-14 -6t-6 -14t6 -14l18 -18l-18 -18q-6 -6 -6 -14t6 -14t14 -6t14 6l18 18l18 -18q6 -6 14 -6t14 6zM374 302q-6 6 -14 6t-14 -6l-18 -18l-18 18q-6 6 -14 6t-14 -6t-6 -14
t6 -14l18 -18l-18 -18q-6 -6 -6 -14t6 -14t14 -6t14 6l18 18l18 -18q6 -6 14 -6t14 6t6 14t-6 14l-18 18l18 18q6 6 6 14t-6 14zM248 176q-26 0 -45 -19t-19 -45t19 -45t45 -19t45 19t19 45t-19 45t-45 19z" />
    <glyph glyph-name="flushed" unicode="&#xf579;" horiz-adv-x="496" 
d="M248 440q-67 0 -124 -33.5t-90.5 -90.5t-33.5 -124t33.5 -124t90.5 -90.5t124 -33.5t124 33.5t90.5 90.5t33.5 124t-33.5 124t-90.5 90.5t-124 33.5zM248 -8q-54 0 -100 27t-73 73t-27 100t27 100t73 73t100 27t100 -27t73 -73t27 -100t-27 -100t-73 -73t-100 -27z
M344 304q-33 0 -56.5 -23.5t-23.5 -56.5t23.5 -56.5t56.5 -23.5t56.5 23.5t23.5 56.5t-23.5 56.5t-56.5 23.5zM344 176q-20 0 -34 14t-14 34t14 34t34 14t34 -14t14 -34t-14 -34t-34 -14zM344 248q-10 0 -17 -7t-7 -17t7 -17t17 -7t17 7t7 17t-7 17t-17 7zM232 224
q0 33 -23.5 56.5t-56.5 23.5t-56.5 -23.5t-23.5 -56.5t23.5 -56.5t56.5 -23.5t56.5 23.5t23.5 56.5zM152 176q-20 0 -34 14t-14 34t14 34t34 14t34 -14t14 -34t-14 -34t-34 -14zM152 248q-10 0 -17 -7t-7 -17t7 -17t17 -7t17 7t7 17t-7 17t-17 7zM312 104h-128q-10 0 -17 -7
t-7 -17t7 -17t17 -7h128q10 0 17 7t7 17t-7 17t-17 7z" />
    <glyph glyph-name="frown-open" unicode="&#xf57a;" horiz-adv-x="496" 
d="M248 440q-67 0 -124 -33.5t-90.5 -90.5t-33.5 -124t33.5 -124t90.5 -90.5t124 -33.5t124 33.5t90.5 90.5t33.5 124t-33.5 124t-90.5 90.5t-124 33.5zM248 -8q-54 0 -100 27t-73 73t-27 100t27 100t73 73t100 27t100 -27t73 -73t27 -100t-27 -100t-73 -73t-100 -27z
M200 240q0 13 -9.5 22.5t-22.5 9.5t-22.5 -9.5t-9.5 -22.5t9.5 -22.5t22.5 -9.5t22.5 9.5t9.5 22.5zM328 272q-13 0 -22.5 -9.5t-9.5 -22.5t9.5 -22.5t22.5 -9.5t22.5 9.5t9.5 22.5t-9.5 22.5t-22.5 9.5zM248 160q-30 0 -59 -16q-32 -18 -37 -45q-1 -9 5.5 -15t15.5 -3
q49 15 75 15t75 -15q9 -3 15.5 3t5.5 15q-5 27 -37 45q-29 16 -59 16z" />
    <glyph glyph-name="grimace" unicode="&#xf57f;" horiz-adv-x="496" 
d="M248 440q-67 0 -124 -33.5t-90.5 -90.5t-33.5 -124t33.5 -124t90.5 -90.5t124 -33.5t124 33.5t90.5 90.5t33.5 124t-33.5 124t-90.5 90.5t-124 33.5zM248 -8q-54 0 -100 27t-73 73t-27 100t27 100t73 73t100 27t100 -27t73 -73t27 -100t-27 -100t-73 -73t-100 -27z
M168 208q13 0 22.5 9.5t9.5 22.5t-9.5 22.5t-22.5 9.5t-22.5 -9.5t-9.5 -22.5t9.5 -22.5t22.5 -9.5zM328 208q13 0 22.5 9.5t9.5 22.5t-9.5 22.5t-22.5 9.5t-22.5 -9.5t-9.5 -22.5t9.5 -22.5t22.5 -9.5zM344 192h-192q-20 0 -34 -14t-14 -34v-32q0 -20 14 -34t34 -14h192
q20 0 34 14t14 34v32q0 20 -14 34t-34 14zM176 96h-24q-7 0 -11.5 4.5t-4.5 11.5v8h40v-24zM176 136h-40v8q0 7 4.5 11.5t11.5 4.5h24v-24zM240 96h-48v24h48v-24zM240 136h-48v24h48v-24zM304 96h-48v24h48v-24zM304 136h-48v24h48v-24zM360 112q0 -7 -4.5 -11.5
t-11.5 -4.5h-24v24h40v-8zM360 136h-40v24h24q7 0 11.5 -4.5t4.5 -11.5v-8z" />
    <glyph glyph-name="grin" unicode="&#xf580;" horiz-adv-x="496" 
d="M248 440q-67 0 -124 -33.5t-90.5 -90.5t-33.5 -124t33.5 -124t90.5 -90.5t124 -33.5t124 33.5t90.5 90.5t33.5 124t-33.5 124t-90.5 90.5t-124 33.5zM248 -8q-54 0 -100 27t-73 73t-27 100t27 100t73 73t100 27t100 -27t73 -73t27 -100t-27 -100t-73 -73t-100 -27z
M354 143q-41 -13 -106 -13t-106 13q-7 3 -13 -2t-4 -13q3 -22 24 -42q18 -17 45.5 -27.5t53.5 -10.5t53.5 10.5t45.5 27.5q20 20 24 42q2 8 -4 13t-13 2zM168 208q13 0 22.5 9.5t9.5 22.5t-9.5 22.5t-22.5 9.5t-22.5 -9.5t-9.5 -22.5t9.5 -22.5t22.5 -9.5zM328 208
q13 0 22.5 9.5t9.5 22.5t-9.5 22.5t-22.5 9.5t-22.5 -9.5t-9.5 -22.5t9.5 -22.5t22.5 -9.5z" />
    <glyph glyph-name="grin-alt" unicode="&#xf581;" horiz-adv-x="496" 
d="M200 200q15 22 15 56t-15 56q-6 9 -16.5 9t-15.5 -9q-15 -22 -15 -56t15 -56q6 -9 16.5 -9t15.5 9zM328 200q15 22 15 56t-15 56q-6 9 -16.5 9t-15.5 -9q-15 -22 -15 -56t15 -56q6 -9 16.5 -9t15.5 9zM248 440q-67 0 -124 -33.5t-90.5 -90.5t-33.5 -124t33.5 -124
t90.5 -90.5t124 -33.5t124 33.5t90.5 90.5t33.5 124t-33.5 124t-90.5 90.5t-124 33.5zM248 -8q-54 0 -100 27t-73 73t-27 100t27 100t73 73t100 27t100 -27t73 -73t27 -100t-27 -100t-73 -73t-100 -27zM354 143q-41 -13 -106 -13t-106 13q-7 3 -13 -2t-4 -13q3 -23 24 -42
q18 -17 45.5 -27.5t53.5 -10.5t53.5 10.5t45.5 27.5q20 20 24 42q2 8 -4 13t-13 2z" />
    <glyph glyph-name="grin-beam" unicode="&#xf582;" horiz-adv-x="496" 
d="M248 440q-67 0 -124 -33.5t-90.5 -90.5t-33.5 -124t33.5 -124t90.5 -90.5t124 -33.5t124 33.5t90.5 90.5t33.5 124t-33.5 124t-90.5 90.5t-124 33.5zM248 -8q-54 0 -100 27t-73 73t-27 100t27 100t73 73t100 27t100 -27t73 -73t27 -100t-27 -100t-73 -73t-100 -27z
M354 143q-41 -13 -106 -13t-106 13q-7 3 -13 -2t-4 -13q3 -22 24 -42q18 -17 45.5 -27.5t53.5 -10.5t53.5 10.5t45.5 27.5q20 20 24 42q2 8 -4 13t-13 2zM118 216q6 -2 9 4l10 17q12 22 31 22t31 -22l10 -17q3 -6 9.5 -4t5.5 9q-2 30 -19.5 50.5t-36.5 20.5t-36.5 -20.5
t-19.5 -50.5q-1 -7 6 -9zM278 216q6 -2 9 4l10 17q12 22 31 22t32 -22l9 -17q3 -6 9.5 -4t5.5 9q-2 30 -19.5 50.5t-36.5 20.5t-36.5 -20.5t-19.5 -50.5q-1 -7 6 -9z" />
    <glyph glyph-name="grin-beam-sweat" unicode="&#xf583;" horiz-adv-x="496" 
d="M440 288q22 0 37.5 17t15.5 42q0 28 -46 97q-3 4 -7 4t-7 -4q-46 -69 -46 -97q0 -25 15.5 -42t37.5 -17zM248 48q26 0 53.5 10.5t45.5 27.5q20 19 24 42q2 7 -4 12.5t-13 2.5q-41 -13 -106 -13t-106 13q-7 3 -13 -2t-4 -13q4 -23 24 -42q18 -17 45.5 -27.5t53.5 -10.5z
M378 216q7 2 6 9q-2 30 -19.5 50.5t-36.5 20.5t-36.5 -20.5t-19.5 -50.5q-1 -7 5.5 -9t9.5 4l10 17q12 22 31 22t31 -22l10 -17q3 -5 9 -4zM484 269q-24 -15 -47 -13v0q11 -31 11 -64q0 -54 -27 -100t-73 -73t-100 -27t-100 27t-73 73t-27 100t27 100t73 73t100 27
q58 0 108 -32q3 18 17 46q-58 34 -125 34t-124 -33.5t-90.5 -90.5t-33.5 -124t33.5 -124t90.5 -90.5t124 -33.5t124 33.5t90.5 90.5t33.5 124q0 40 -12 77zM168 259q19 0 31 -22l10 -17q3 -6 9.5 -4t5.5 9q-2 30 -19.5 50.5t-36.5 20.5t-36.5 -20.5t-19.5 -50.5
q-1 -7 5.5 -9t9.5 4l10 17q12 22 31 22z" />
    <glyph glyph-name="grin-hearts" unicode="&#xf584;" horiz-adv-x="496" 
d="M354 143q-41 -13 -106 -13t-106 13q-7 3 -13 -2t-4 -13q3 -23 24 -42q18 -17 45.5 -27.5t53.5 -10.5t53.5 10.5t45.5 27.5q20 20 24 42q2 8 -4 13t-13 2zM201 192q3 -1 6 1t4 5l20 70q4 16 -4.5 29t-24.5 16q-14 2 -26 -6t-16 -22l-2 -7l-7 2q-14 3 -27 -3t-18 -20
t2 -28.5t23 -18.5zM390 258q-5 13 -18 19t-27 3l-7 -2l-2 7q-4 14 -16 22t-27 5.5t-23.5 -15.5t-4.5 -29l20 -70q1 -3 4 -5t6 -1l70 19q16 3 23 17.5t2 29.5zM248 440q-67 0 -124 -33.5t-90.5 -90.5t-33.5 -124t33.5 -124t90.5 -90.5t124 -33.5t124 33.5t90.5 90.5t33.5 124
t-33.5 124t-90.5 90.5t-124 33.5zM248 -8q-54 0 -100 27t-73 73t-27 100t27 100t73 73t100 27t100 -27t73 -73t27 -100t-27 -100t-73 -73t-100 -27z" />
    <glyph glyph-name="grin-squint" unicode="&#xf585;" horiz-adv-x="496" 
d="M248 440q-67 0 -124 -33.5t-90.5 -90.5t-33.5 -124t33.5 -124t90.5 -90.5t124 -33.5t124 33.5t90.5 90.5t33.5 124t-33.5 124t-90.5 90.5t-124 33.5zM248 -8q-54 0 -100 27t-73 73t-27 100t27 100t73 73t100 27t100 -27t73 -73t27 -100t-27 -100t-73 -73t-100 -27z
M354 143q-41 -13 -106 -13t-106 13q-7 3 -13 -2t-4 -13q3 -22 24 -42q18 -17 45.5 -27.5t53.5 -10.5t53.5 10.5t45.5 27.5q20 20 24 42q2 8 -4 13t-13 2zM119 184q3 -3 7 -4t8 2l80 48q6 3 6 10t-6 10l-80 48q-4 3 -8 2t-7 -4.5t-3 -7.5t3 -8l33 -40l-33 -40q-3 -4 -3 -8
t3 -8zM362 182q4 -3 8 -2t7 4.5t3 7.5t-3 8l-33 40l33 40q3 4 3 8t-3 7.5t-7 4t-8 -1.5l-80 -48q-6 -3 -6 -10t6 -10z" />
    <glyph glyph-name="grin-squint-tears" unicode="&#xf586;" 
d="M117 64q-82 -12 -101 -31q-16 -16 -16 -39.5t17 -40.5t40.5 -17t39.5 16q19 19 31 101q1 5 -2.5 8.5t-8.5 2.5zM76 106q-27 56 -17 119t56 108q28 29 64.5 44t76.5 15q54 0 101 -28q5 28 12 49q-53 27 -113 27q-49 0 -94.5 -18.5t-80.5 -54.5q-55 -54 -68.5 -129.5
t16.5 -144.5q20 7 47 13zM428 293q34 -58 26 -126t-57 -116q-28 -29 -64.5 -44t-76.5 -15q-45 0 -86 20q-6 -28 -13 -47q48 -21 99 -21q49 0 94.5 18.5t81.5 54.5q38 38 56.5 87.5t15.5 102t-27 98.5q-20 -6 -49 -12zM395 320q82 12 101 31q16 16 16 39.5t-17 40.5t-40.5 17
t-39.5 -16q-19 -19 -31 -101q-1 -5 2.5 -8.5t8.5 -2.5zM208 212q-5 5 -11 3l-91 -23q-4 -1 -6.5 -4.5t-2.5 -8t3 -7.5t8 -3l52 -5l5 -52q0 -5 3.5 -8t7.5 -3h1q4 0 7 2.5t5 6.5l22 90q2 7 -3 12zM248 237l90 23q4 1 7 4.5t2.5 7.5t-3.5 7.5t-8 3.5l-52 5l-5 52q0 5 -3 8
t-7.5 3t-8 -2.5t-4.5 -6.5l-23 -90q-2 -7 3 -12t12 -3v0zM300 148q-46 -45 -84 -65q-7 -4 -7.5 -11.5t5.5 -11.5q19 -14 46 -13q26 1 52.5 13t45 30.5t30.5 45t13 52.5q1 27 -13 46q-4 6 -11.5 5.5t-11.5 -7.5q-19 -37 -65 -84z" />
    <glyph glyph-name="grin-stars" unicode="&#xf587;" horiz-adv-x="496" 
d="M248 440q-67 0 -124 -33.5t-90.5 -90.5t-33.5 -124t33.5 -124t90.5 -90.5t124 -33.5t124 33.5t90.5 90.5t33.5 124t-33.5 124t-90.5 90.5t-124 33.5zM248 -8q-54 0 -100 27t-73 73t-27 100t27 100t73 73t100 27t100 -27t73 -73t27 -100t-27 -100t-73 -73t-100 -27z
M354 143q-41 -13 -106 -13t-106 13q-7 3 -13 -2t-4 -13q3 -23 24 -42q18 -17 45.5 -27.5t53.5 -10.5t53.5 10.5t45.5 27.5q20 20 24 42q2 8 -4 13t-13 2zM126 201q-1 -5 3 -7.5t8 -0.5l31 16l31 -16q4 -2 8 0.5t3 7.5l-6 35l26 24q3 4 1.5 8.5t-6.5 5.5l-34 5l-16 31
q-2 5 -7 5t-7 -5l-15 -31l-35 -5q-5 -1 -6.5 -5.5t1.5 -8.5l26 -24zM385 274l-34 5l-16 31q-2 5 -7 5t-7 -5l-15 -31l-35 -5q-5 -1 -6.5 -5.5t1.5 -8.5l26 -24l-6 -35q-1 -5 3 -7.5t8 -0.5l31 16l31 -16q5 -2 8.5 0.5t2.5 7.5l-6 35l26 24q3 4 1.5 8.5t-6.5 5.5z" />
    <glyph glyph-name="grin-tears" unicode="&#xf588;" horiz-adv-x="640" 
d="M117 192q-82 -12 -101 -31q-16 -16 -16 -39.5t17 -40.5t40.5 -17t39.5 16q19 19 31 101q1 5 -2.5 8.5t-8.5 2.5zM624 161q-19 19 -101 31q-5 1 -8.5 -2.5t-2.5 -8.5q12 -82 31 -101q16 -16 39.5 -16t40.5 17t17 40.5t-16 39.5zM497 100q-25 -49 -72.5 -78.5t-104.5 -29.5
t-104.5 29.5t-72.5 78.5q-12 -34 -27 -46l-2 -1q35 -50 89 -79.5t117 -29.5t117 29.5t88 79.5l-1 1q-16 12 -27 46zM123 224q7 47 35 85.5t70.5 60.5t91.5 22t91.5 -22t70.5 -60.5t35 -86.5l1 1q8 1 49 -7q-6 62 -40.5 113t-89 80.5t-117.5 29.5t-117.5 -29.5t-89 -80.5
t-40.5 -113q41 8 49 7h1zM320 48q26 0 53.5 10.5t45.5 27.5q20 19 24 42q2 7 -4 12.5t-13 2.5q-41 -13 -106 -13t-106 13q-7 3 -13 -2t-4 -13q4 -23 24 -42q18 -17 45.5 -27.5t53.5 -10.5zM450 216q7 2 6 9q-2 30 -19.5 50.5t-36.5 20.5t-36.5 -20.5t-19.5 -50.5
q-1 -7 5.5 -9t9.5 4l10 17q12 22 31 22t31 -22l10 -17q3 -5 9 -4zM240 259q19 0 31 -22l10 -17q3 -6 9.5 -4t5.5 9q-2 30 -19.5 50.5t-36.5 20.5t-36.5 -20.5t-19.5 -50.5q-1 -7 5.5 -9t9.5 4l10 17q12 22 31 22z" />
    <glyph glyph-name="grin-tongue" unicode="&#xf589;" horiz-adv-x="496" 
d="M248 440q-67 0 -124 -33.5t-90.5 -90.5t-33.5 -124t33.5 -124t90.5 -90.5t124 -33.5t124 33.5t90.5 90.5t33.5 124t-33.5 124t-90.5 90.5t-124 33.5zM312 40q0 -27 -19 -45.5t-45.5 -18.5t-45 19.5t-18.5 45.5v43l18 9q11 5 21.5 -0.5t13.5 -16.5l2 -12q2 -7 9 -7t9 7
l3 12q2 11 12.5 16.5t21.5 0.5l18 -9v-44zM340 15q4 14 4 25v44q23 20 27 44q2 7 -4 12.5t-13 2.5q-41 -13 -106 -13t-106 13q-7 3 -13 -2t-4 -13q4 -24 27 -44v-44q0 -11 4 -25q-49 25 -78.5 72.5t-29.5 104.5q0 54 27 100t73 73t100 27t100 -27t73 -73t27 -100
q0 -57 -29.5 -104.5t-78.5 -72.5zM168 272q-13 0 -22.5 -9.5t-9.5 -22.5t9.5 -22.5t22.5 -9.5t22.5 9.5t9.5 22.5t-9.5 22.5t-22.5 9.5zM328 272q-13 0 -22.5 -9.5t-9.5 -22.5t9.5 -22.5t22.5 -9.5t22.5 9.5t9.5 22.5t-9.5 22.5t-22.5 9.5z" />
    <glyph glyph-name="grin-tongue-squint" unicode="&#xf58a;" horiz-adv-x="496" 
d="M248 440q-67 0 -124 -33.5t-90.5 -90.5t-33.5 -124t33.5 -124t90.5 -90.5t124 -33.5t124 33.5t90.5 90.5t33.5 124t-33.5 124t-90.5 90.5t-124 33.5zM312 40q0 -27 -19 -45.5t-45.5 -18.5t-45 19.5t-18.5 45.5v43l18 9q11 5 21.5 -0.5t13.5 -16.5l2 -12q2 -7 9 -7t9 7
l3 12q2 11 12.5 16.5t21.5 0.5l18 -9v-44zM340 15q4 14 4 25v44q23 20 27 44q2 7 -4 12.5t-13 2.5q-41 -13 -106 -13t-106 13q-7 3 -13 -2t-4 -13q4 -24 27 -44v-44q0 -11 4 -25q-49 25 -78.5 72.5t-29.5 104.5q0 54 27 100t73 73t100 27t100 -27t73 -73t27 -100
q0 -57 -29.5 -104.5t-78.5 -72.5zM377 296q-3 3 -7 4t-8 -2l-80 -48q-6 -3 -6 -10t6 -10l80 -48q4 -3 8 -2t7 4.5t3 7.5t-3 8l-33 40l33 40q3 4 3 8t-3 8zM214 250l-80 48q-4 3 -8 2t-7 -4.5t-3 -7.5t3 -8l33 -40l-33 -40q-3 -4 -3 -8t3 -7.5t7 -4.5t8 2l80 48q6 3 6 10
t-6 10z" />
    <glyph glyph-name="grin-tongue-wink" unicode="&#xf58b;" horiz-adv-x="496" 
d="M152 268q-20 0 -38.5 -12t-21.5 -30q-1 -8 6.5 -12.5t13.5 1.5l10 9q11 10 30 9.5t30 -9.5l10 -9q6 -5 13.5 -1t6.5 12q-3 18 -21.5 30t-38.5 12zM328 320q-33 0 -56.5 -23.5t-23.5 -56.5t23.5 -56.5t56.5 -23.5t56.5 23.5t23.5 56.5t-23.5 56.5t-56.5 23.5zM328 192
q-20 0 -34 14t-14 34t14 34t34 14t34 -14t14 -34t-14 -34t-34 -14zM328 264q-10 0 -17 -7t-7 -17t7 -17t17 -7t17 7t7 17t-7 17t-17 7zM248 440q-67 0 -124 -33.5t-90.5 -90.5t-33.5 -124t33.5 -124t90.5 -90.5t124 -33.5t124 33.5t90.5 90.5t33.5 124t-33.5 124t-90.5 90.5
t-124 33.5zM312 40q0 -27 -19 -45.5t-45.5 -18.5t-45 19.5t-18.5 45.5v43l18 9q11 5 21.5 -0.5t13.5 -16.5l2 -12q2 -7 9 -7t9 7l3 12q2 11 12.5 16.5t21.5 0.5l18 -9v-44zM340 15q4 14 4 25v44q23 20 27 44q2 7 -4 12.5t-13 2.5q-41 -13 -106 -13t-106 13q-7 3 -13 -2
t-4 -13q4 -24 27 -44v-44q0 -11 4 -25q-49 25 -78.5 72.5t-29.5 104.5q0 54 27 100t73 73t100 27t100 -27t73 -73t27 -100q0 -57 -29.5 -104.5t-78.5 -72.5z" />
    <glyph glyph-name="grin-wink" unicode="&#xf58c;" horiz-adv-x="496" 
d="M328 268q-20 0 -38.5 -12t-21.5 -30q-1 -9 6.5 -13t13.5 2l10 9q11 9 30 9t30 -9l10 -9q6 -6 13.5 -1.5t6.5 12.5q-3 18 -21.5 30t-38.5 12zM168 208q13 0 22.5 9.5t9.5 22.5t-9.5 22.5t-22.5 9.5t-22.5 -9.5t-9.5 -22.5t9.5 -22.5t22.5 -9.5zM354 143q-41 -13 -106 -13
t-106 13q-7 3 -13 -2t-4 -13q4 -23 24 -42q18 -17 45.5 -27.5t53.5 -10.5t53.5 10.5t45.5 27.5q20 19 24 42q2 8 -4 13t-13 2zM248 440q-67 0 -124 -33.5t-90.5 -90.5t-33.5 -124t33.5 -124t90.5 -90.5t124 -33.5t124 33.5t90.5 90.5t33.5 124t-33.5 124t-90.5 90.5
t-124 33.5zM248 -8q-54 0 -100 27t-73 73t-27 100t27 100t73 73t100 27t100 -27t73 -73t27 -100t-27 -100t-73 -73t-100 -27z" />
    <glyph glyph-name="kiss" unicode="&#xf596;" horiz-adv-x="496" 
d="M168 272q-13 0 -22.5 -9.5t-9.5 -22.5t9.5 -22.5t22.5 -9.5t22.5 9.5t9.5 22.5t-9.5 22.5t-22.5 9.5zM304 140q0 15 -20.5 28.5t-50.5 15.5q-3 0 -5.5 -1.5t-3.5 -4.5q-1 -7 5 -9l17 -8q21 -8 21 -21t-21 -22l-17 -7q-4 -2 -4 -7.5t4 -7.5l17 -7q21 -9 21 -21.5
t-21 -21.5l-17 -7q-6 -3 -4.5 -9t7.5 -6h1q30 1 50.5 14.5t20.5 29.5q0 9 -9.5 19t-25.5 17q16 6 25.5 16t9.5 20zM248 440q-67 0 -124 -33.5t-90.5 -90.5t-33.5 -124t33.5 -124t90.5 -90.5t124 -33.5t124 33.5t90.5 90.5t33.5 124t-33.5 124t-90.5 90.5t-124 33.5zM248 -8
q-54 0 -100 27t-73 73t-27 100t27 100t73 73t100 27t100 -27t73 -73t27 -100t-27 -100t-73 -73t-100 -27zM328 272q-13 0 -22.5 -9.5t-9.5 -22.5t9.5 -22.5t22.5 -9.5t22.5 9.5t9.5 22.5t-9.5 22.5t-22.5 9.5z" />
    <glyph glyph-name="kiss-beam" unicode="&#xf597;" horiz-adv-x="496" 
d="M168 296q-19 0 -36.5 -20.5t-19.5 -50.5q-1 -7 5.5 -8.5t9.5 3.5l9 17q13 22 32 22t31 -22l10 -17q3 -6 9 -4t6 9q-2 30 -19.5 50.5t-36.5 20.5zM248 440q-67 0 -124 -33.5t-90.5 -90.5t-33.5 -124t33.5 -124t90.5 -90.5t124 -33.5t124 33.5t90.5 90.5t33.5 124
t-33.5 124t-90.5 90.5t-124 33.5zM248 -8q-54 0 -100 27t-73 73t-27 100t27 100t73 73t100 27t100 -27t73 -73t27 -100t-27 -100t-73 -73t-100 -27zM304 140q0 15 -20.5 28.5t-50.5 15.5q-3 0 -5.5 -1.5t-3.5 -4.5q-1 -7 5 -9l17 -8q21 -8 21 -21t-21 -22l-17 -7
q-4 -2 -4 -7.5t4 -7.5l17 -7q21 -9 21 -21.5t-21 -21.5l-17 -7q-6 -3 -4.5 -9t7.5 -6h1q30 1 50.5 14.5t20.5 29.5q0 9 -9.5 19t-25.5 17q16 6 25.5 16t9.5 20zM328 296q-19 0 -36.5 -20.5t-19.5 -50.5q-1 -7 5.5 -8.5t9.5 3.5l9 17q13 22 32 22t31 -22l10 -17q3 -6 9 -4
t6 9q-2 30 -19.5 50.5t-36.5 20.5z" />
    <glyph glyph-name="kiss-wink-heart" unicode="&#xf598;" horiz-adv-x="504" 
d="M304 140q0 15 -20.5 28.5t-50.5 15.5q-3 0 -5.5 -2t-3.5 -5q-1 -6 5 -9l17 -7q21 -9 21 -21.5t-21 -21.5l-17 -7q-4 -2 -4 -7.5t4 -7.5l17 -7q21 -9 21 -21.5t-21 -21.5l-17 -7q-6 -3 -4.5 -9.5t7.5 -6.5h1q30 2 50.5 15.5t20.5 28.5q0 10 -9.5 20t-25.5 16q16 7 25.5 17
t9.5 20zM375 223l9 -8q6 -6 13.5 -2t6.5 12q-3 18 -21.5 30t-38.5 12t-38.5 -12t-21.5 -30q-1 -8 6.5 -12t13.5 2l10 8q11 10 30 10t31 -10zM136 240q0 -14 9.5 -23.5t22.5 -9t22.5 9.5t9.5 22.5t-9.5 23t-22.5 9.5t-22.5 -9.5t-9.5 -22.5zM501 46q-6 15 -21.5 22.5
t-31.5 2.5l-8 -2l-3 9q-4 16 -18 25.5t-31 7.5q-19 -3 -29 -19t-5 -34l23 -83q1 -4 5 -6t8 -1l83 22q18 5 26.5 21.5t1.5 33.5v1zM334 12q-41 -20 -86 -20q-54 0 -100 27t-73 73t-27 100t27 100t73 73t100 27t100 -27t73 -73t27 -100q0 -32 -10 -63q15 -11 22 -24q8 0 19 -3
q17 44 17 90q0 67 -33.5 124t-90.5 90.5t-124 33.5t-124 -33.5t-90.5 -90.5t-33.5 -124t33.5 -124t90.5 -90.5t124 -33.5q52 0 99 21q0 2 0 1t-11 37z" />
    <glyph glyph-name="laugh" unicode="&#xf599;" horiz-adv-x="496" 
d="M248 440q-67 0 -124 -33.5t-90.5 -90.5t-33.5 -124t33.5 -124t90.5 -90.5t124 -33.5t124 33.5t90.5 90.5t33.5 124t-33.5 124t-90.5 90.5t-124 33.5zM389 51q-28 -29 -64.5 -44t-76.5 -15t-76.5 15t-65 43.5t-43.5 65t-15 76.5t15 76.5t43.5 65t65 43.5t76.5 15t76.5 -15
t65 -43.5t43.5 -65t15 -76.5t-15 -76.5t-44 -64.5zM328 224q13 0 22.5 9.5t9.5 22.5t-9.5 22.5t-22.5 9.5t-22.5 -9.5t-9.5 -22.5t9.5 -22.5t22.5 -9.5zM168 224q13 0 22.5 9.5t9.5 22.5t-9.5 22.5t-22.5 9.5t-22.5 -9.5t-9.5 -22.5t9.5 -22.5t22.5 -9.5zM362 160h-228
q-7 0 -11 -4.5t-3 -10.5q6 -45 40.5 -75t80.5 -30h14q46 0 80.5 30t40.5 75q1 6 -3 10.5t-11 4.5z" />
    <glyph glyph-name="laugh-beam" unicode="&#xf59a;" horiz-adv-x="496" 
d="M248 440q-67 0 -124 -33.5t-90.5 -90.5t-33.5 -124t33.5 -124t90.5 -90.5t124 -33.5t124 33.5t90.5 90.5t33.5 124t-33.5 124t-90.5 90.5t-124 33.5zM389 51q-28 -29 -64.5 -44t-76.5 -15t-76.5 15t-65 43.5t-43.5 65t-15 76.5t15 76.5t43.5 65t65 43.5t76.5 15t76.5 -15
t65 -43.5t43.5 -65t15 -76.5t-15 -76.5t-44 -64.5zM328 296q-19 0 -36.5 -20.5t-19.5 -50.5q-1 -7 5.5 -8.5t9.5 3.5l9 17q13 22 32 22t31 -22l10 -17q3 -5 9 -3.5t6 8.5q-2 30 -19.5 50.5t-36.5 20.5zM127 220l10 17q12 22 31 22t31 -22l10 -17q3 -5 9 -3.5t6 8.5
q-2 30 -19.5 50.5t-36.5 20.5t-36.5 -20.5t-19.5 -50.5q-1 -7 5.5 -8.5t9.5 3.5zM362 160h-228q-7 0 -11 -4.5t-3 -10.5q6 -45 40.5 -75t80.5 -30h14q46 0 80.5 30t40.5 75q1 6 -3 10.5t-11 4.5z" />
    <glyph glyph-name="laugh-squint" unicode="&#xf59b;" horiz-adv-x="496" 
d="M248 440q-67 0 -124 -33.5t-90.5 -90.5t-33.5 -124t33.5 -124t90.5 -90.5t124 -33.5t124 33.5t90.5 90.5t33.5 124t-33.5 124t-90.5 90.5t-124 33.5zM389 51q-28 -29 -64.5 -44t-76.5 -15t-76.5 15t-65 43.5t-43.5 65t-15 76.5t15 76.5t43.5 65t65 43.5t76.5 15t76.5 -15
t65 -43.5t43.5 -65t15 -76.5t-15 -76.5t-44 -64.5zM344 252l33 40q4 5 2.5 11t-7 8.5t-10.5 -1.5l-80 -48q-6 -3 -6 -10t6 -10l80 -48q5 -4 10.5 -1.5t7 8.5t-2.5 11zM134 194l80 48q6 3 6 10t-6 10l-80 48q-5 4 -10.5 1.5t-7 -8.5t2.5 -11l33 -40l-33 -40q-4 -5 -2.5 -11
t7 -8.5t10.5 1.5zM362 160h-228q-7 0 -11 -4.5t-3 -10.5q6 -45 40.5 -75t80.5 -30h14q46 0 80.5 30t40.5 75q1 6 -3 10.5t-11 4.5z" />
    <glyph glyph-name="laugh-wink" unicode="&#xf59c;" horiz-adv-x="496" 
d="M248 440q-67 0 -124 -33.5t-90.5 -90.5t-33.5 -124t33.5 -124t90.5 -90.5t124 -33.5t124 33.5t90.5 90.5t33.5 124t-33.5 124t-90.5 90.5t-124 33.5zM389 51q-28 -29 -64.5 -44t-76.5 -15t-76.5 15t-65 43.5t-43.5 65t-15 76.5t15 76.5t43.5 65t65 43.5t76.5 15t76.5 -15
t65 -43.5t43.5 -65t15 -76.5t-15 -76.5t-44 -64.5zM328 284q-20 0 -38.5 -12t-21.5 -30q-1 -8 6.5 -12t13.5 1l9 9q12 10 31 9.5t30 -9.5l10 -9q6 -5 13.5 -1t6.5 12q-3 18 -21.5 30t-38.5 12zM168 224q13 0 22.5 9.5t9.5 22.5t-9.5 22.5t-22.5 9.5t-22.5 -9.5t-9.5 -22.5
t9.5 -22.5t22.5 -9.5zM362 160h-228q-7 0 -11 -4.5t-3 -10.5q6 -45 40.5 -75t80.5 -30h14q46 0 80.5 30t40.5 75q1 6 -3 10.5t-11 4.5z" />
    <glyph glyph-name="meh-blank" unicode="&#xf5a4;" horiz-adv-x="496" 
d="M248 440q-67 0 -124 -33.5t-90.5 -90.5t-33.5 -124t33.5 -124t90.5 -90.5t124 -33.5t124 33.5t90.5 90.5t33.5 124t-33.5 124t-90.5 90.5t-124 33.5zM248 -8q-54 0 -100 27t-73 73t-27 100t27 100t73 73t100 27t100 -27t73 -73t27 -100t-27 -100t-73 -73t-100 -27z
M168 272q-13 0 -22.5 -9.5t-9.5 -22.5t9.5 -22.5t22.5 -9.5t22.5 9.5t9.5 22.5t-9.5 22.5t-22.5 9.5zM328 272q-13 0 -22.5 -9.5t-9.5 -22.5t9.5 -22.5t22.5 -9.5t22.5 9.5t9.5 22.5t-9.5 22.5t-22.5 9.5z" />
    <glyph glyph-name="meh-rolling-eyes" unicode="&#xf5a5;" horiz-adv-x="496" 
d="M248 440q-67 0 -124 -33.5t-90.5 -90.5t-33.5 -124t33.5 -124t90.5 -90.5t124 -33.5t124 33.5t90.5 90.5t33.5 124t-33.5 124t-90.5 90.5t-124 33.5zM248 -8q-54 0 -100 27t-73 73t-27 100t27 100t73 73t100 27t100 -27t73 -73t27 -100t-27 -100t-73 -73t-100 -27z
M336 296q-30 0 -51 -21t-21 -51t21 -51t51 -21t51 21t21 51t-21 51t-51 21zM336 184q-17 0 -28.5 11.5t-11.5 28.5q0 20 18 32q-2 -4 -2 -8q0 -10 7 -17t17 -7t17 7t7 17q0 4 -2 8q18 -12 18 -32q0 -17 -11.5 -28.5t-28.5 -11.5zM232 224q0 30 -21 51t-51 21t-51 -21
t-21 -51t21 -51t51 -21t51 21t21 51zM120 224q0 20 18 32q-2 -4 -2 -8q0 -10 7 -17t17 -7t17 7t7 17q0 4 -2 8q18 -12 18 -32q0 -17 -11.5 -28.5t-28.5 -11.5t-28.5 11.5t-11.5 28.5zM312 96h-128q-10 0 -17 -7t-7 -17t7 -17t17 -7h128q10 0 17 7t7 17t-7 17t-17 7z" />
    <glyph glyph-name="sad-cry" unicode="&#xf5b3;" horiz-adv-x="496" 
d="M248 440q-67 0 -124 -33.5t-90.5 -90.5t-33.5 -124t33.5 -124t90.5 -90.5t124 -33.5t124 33.5t90.5 90.5t33.5 124t-33.5 124t-90.5 90.5t-124 33.5zM392 54v114q0 10 -7 17t-17 7t-17 -7t-7 -17v-151q-45 -25 -96 -25t-96 25v151q0 10 -7 17t-17 7t-17 -7t-7 -17v-114
q-27 27 -41.5 62.5t-14.5 75.5q0 54 27 100t73 73t100 27t100 -27t73 -73t27 -100q0 -40 -15 -75.5t-41 -62.5zM206 214q7 4 6 12q-3 18 -21.5 30t-38.5 12t-38.5 -12t-21.5 -30q-1 -8 6.5 -12.5t13.5 1.5l10 9q11 10 30 9.5t31 -9.5l9 -9q6 -6 14 -2v1zM344 268
q-20 0 -38.5 -12t-21.5 -30q-1 -8 6.5 -12t13.5 1l10 9q11 9 30 9t31 -9l9 -9q6 -5 13.5 -1t6.5 12q-3 18 -21.5 30t-38.5 12zM248 176q-23 0 -39.5 -19t-16.5 -45t16.5 -45t39.5 -19t39.5 19t16.5 45t-16.5 45t-39.5 19z" />
    <glyph glyph-name="sad-tear" unicode="&#xf5b4;" horiz-adv-x="496" 
d="M248 440q-67 0 -124 -33.5t-90.5 -90.5t-33.5 -124t33.5 -124t90.5 -90.5t124 -33.5t124 33.5t90.5 90.5t33.5 124t-33.5 124t-90.5 90.5t-124 33.5zM248 -8q-54 0 -100 27t-73 73t-27 100t27 100t73 73t100 27t100 -27t73 -73t27 -100t-27 -100t-73 -73t-100 -27z
M256 144q-10 0 -17 -7t-7 -17t7 -17t17 -7q18 0 34 -7.5t28 -21.5q6 -7 16 -8t17.5 5t8.5 16t-5 18q-19 22 -44.5 34t-54.5 12zM168 208q13 0 22.5 9.5t9.5 22.5t-9.5 22.5t-22.5 9.5t-22.5 -9.5t-9.5 -22.5t9.5 -22.5t22.5 -9.5zM328 272q-13 0 -22.5 -9.5t-9.5 -22.5
t9.5 -22.5t22.5 -9.5t22.5 9.5t9.5 22.5t-9.5 22.5t-22.5 9.5zM162 173q-36 -49 -36 -68q0 -17 12.5 -29t29.5 -12t29.5 12t12.5 29q0 19 -36 68q-2 3 -6 3t-6 -3z" />
    <glyph glyph-name="smile-beam" unicode="&#xf5b8;" horiz-adv-x="496" 
d="M248 440q-67 0 -124 -33.5t-90.5 -90.5t-33.5 -124t33.5 -124t90.5 -90.5t124 -33.5t124 33.5t90.5 90.5t33.5 124t-33.5 124t-90.5 90.5t-124 33.5zM248 -8q-54 0 -100 27t-73 73t-27 100t27 100t73 73t100 27t100 -27t73 -73t27 -100t-27 -100t-73 -73t-100 -27z
M332 135q-16 -18 -38 -28.5t-46 -10.5t-46 10.5t-38 28.5q-6 8 -16 9t-17.5 -5.5t-8.5 -16.5t5 -17q23 -27 54.5 -42t66.5 -15t66.5 15t54.5 42q6 7 5 17t-8.5 16.5t-17.5 5.5t-16 -9zM137 237q12 22 31 22t31 -22l10 -17q3 -6 9.5 -4t5.5 9q-2 30 -19.5 50.5t-36.5 20.5
t-36.5 -20.5t-19.5 -50.5q-1 -7 5.5 -9t9.5 4zM328 296q-19 0 -36.5 -20.5t-19.5 -50.5q-1 -7 5.5 -9t9.5 4l10 17q12 22 31 22t31 -22l10 -17q3 -6 9.5 -4t5.5 9q-2 30 -19.5 50.5t-36.5 20.5z" />
    <glyph glyph-name="surprise" unicode="&#xf5c2;" horiz-adv-x="496" 
d="M248 440q-67 0 -124 -33.5t-90.5 -90.5t-33.5 -124t33.5 -124t90.5 -90.5t124 -33.5t124 33.5t90.5 90.5t33.5 124t-33.5 124t-90.5 90.5t-124 33.5zM248 -8q-54 0 -100 27t-73 73t-27 100t27 100t73 73t100 27t100 -27t73 -73t27 -100t-27 -100t-73 -73t-100 -27z
M248 168q-26 0 -45 -19t-19 -45t19 -45t45 -19t45 19t19 45t-19 45t-45 19zM200 240q0 13 -9.5 22.5t-22.5 9.5t-22.5 -9.5t-9.5 -22.5t9.5 -22.5t22.5 -9.5t22.5 9.5t9.5 22.5zM328 272q-13 0 -22.5 -9.5t-9.5 -22.5t9.5 -22.5t22.5 -9.5t22.5 9.5t9.5 22.5t-9.5 22.5
t-22.5 9.5z" />
    <glyph glyph-name="tired" unicode="&#xf5c8;" horiz-adv-x="496" 
d="M248 440q-67 0 -124 -33.5t-90.5 -90.5t-33.5 -124t33.5 -124t90.5 -90.5t124 -33.5t124 33.5t90.5 90.5t33.5 124t-33.5 124t-90.5 90.5t-124 33.5zM248 -8q-54 0 -100 27t-73 73t-27 100t27 100t73 73t100 27t100 -27t73 -73t27 -100t-27 -100t-73 -73t-100 -27z
M377 296q-3 3 -7 3.5t-8 -1.5l-80 -48q-6 -3 -6 -10t6 -10l80 -48q4 -3 8 -2t7 4.5t3 7.5t-3 8l-33 40l33 40q3 4 3 8t-3 8zM220 240q0 7 -6 10l-80 48q-4 3 -8 2t-7 -4.5t-3 -7.5t3 -8l33 -40l-33 -40q-3 -4 -3 -8t3 -7.5t7 -4.5t8 2l80 48q6 3 6 10zM248 176
q-23 0 -47 -12t-40 -33q-17 -22 -21 -48q-1 -9 4 -15t12 -3q35 15 92 15t92 -15q7 -3 12 3t4 15q-4 26 -21 48q-16 21 -40 33t-47 12z" />
  </font>
</defs>
</svg>
